<svg width="733.3" height="82.103" viewBox="0 0 733.3 82.103" xmlns="http://www.w3.org/2000/svg"><g id="svgGroup" stroke-linecap="round" fill-rule="evenodd" font-size="9pt" stroke="#000" stroke-width="0.25mm" fill="#000" style="stroke:#000;stroke-width:0.25mm;fill:#000"><path d="M 40.3 38.202 L 27.9 34.102 Q 21.4 31.902 18.8 28.802 Q 16.2 25.702 16.2 22.102 Q 16.2 19.002 17.65 16.302 Q 19.061 13.676 22.364 11.995 A 16.377 16.377 0 0 1 22.55 11.902 Q 25.08 10.655 28.874 10.323 A 33.58 33.58 0 0 1 31.8 10.202 Q 37.7 10.202 42.4 13.202 Q 47.1 16.202 49.9 22.102 L 45.9 25.002 Q 44.1 20.202 40.3 17.602 Q 36.5 15.002 31.8 15.002 A 26.007 26.007 0 0 0 28.952 15.147 Q 26.042 15.469 24.285 16.506 A 6.237 6.237 0 0 0 23.5 17.052 A 7.25 7.25 0 0 0 21.887 18.865 A 6.08 6.08 0 0 0 21 22.102 Q 21 26.184 27.615 28.849 A 31.124 31.124 0 0 0 29.4 29.502 L 41.8 33.602 A 39.727 39.727 0 0 1 48.889 36.656 A 28.932 28.932 0 0 1 55.95 42.102 A 19.048 19.048 0 0 1 60.782 51.944 A 27.02 27.02 0 0 1 61.2 56.802 A 30.324 30.324 0 0 1 60.284 64.471 A 21.121 21.121 0 0 1 53.45 75.502 Q 47.011 80.986 36.051 81.913 A 55.179 55.179 0 0 1 31.4 82.102 A 44.803 44.803 0 0 1 22.572 81.278 Q 16.875 80.133 12.385 77.398 A 27.657 27.657 0 0 1 11.3 76.702 Q 3.3 71.302 0 61.702 L 3.6 59.302 Q 7.069 67.108 12.155 71.309 A 21.643 21.643 0 0 0 15 73.302 A 29.666 29.666 0 0 0 25.759 77.002 A 38.475 38.475 0 0 0 31.4 77.402 A 42.992 42.992 0 0 0 38.554 76.845 Q 42.417 76.192 45.507 74.774 A 20.38 20.38 0 0 0 49.85 72.102 Q 56.4 66.802 56.4 56.802 A 19.912 19.912 0 0 0 55.774 51.674 A 14.402 14.402 0 0 0 51.95 45.002 A 26.204 26.204 0 0 0 45.791 40.533 A 35.633 35.633 0 0 0 40.3 38.202 Z M 32.7 49.002 L 21.4 45.002 A 46.306 46.306 0 0 1 15.565 42.47 Q 12.646 40.939 10.415 39.123 A 22.692 22.692 0 0 1 7.95 36.802 A 16.706 16.706 0 0 1 4.18 29.672 Q 3.504 27.099 3.414 24.048 A 32.128 32.128 0 0 1 3.4 23.102 Q 3.4 16.802 6.7 11.552 A 22.466 22.466 0 0 1 13.583 4.659 A 28.172 28.172 0 0 1 16.2 3.152 A 27.851 27.851 0 0 1 23.493 0.694 Q 26.746 0.056 30.466 0.006 A 47.307 47.307 0 0 1 31.1 0.002 A 44.776 44.776 0 0 1 41.385 1.096 Q 47.883 2.631 52.349 6.322 A 24.057 24.057 0 0 1 59.1 15.502 L 55.3 18.202 A 30.72 30.72 0 0 0 52.344 13.377 Q 50.407 10.819 48.12 9.164 A 16.024 16.024 0 0 0 45.25 7.502 Q 39.2 4.802 31.1 4.802 A 34.536 34.536 0 0 0 25.261 5.271 Q 21.747 5.874 18.85 7.252 A 21.402 21.402 0 0 0 14.331 10.101 A 17.281 17.281 0 0 0 10.95 13.852 Q 8.2 18.002 8.2 23.102 A 20.733 20.733 0 0 0 8.639 27.502 Q 9.252 30.323 10.72 32.447 A 12.02 12.02 0 0 0 12 34.002 A 21.483 21.483 0 0 0 15.893 37.114 Q 17.862 38.364 20.308 39.433 A 44.322 44.322 0 0 0 23 40.502 L 34.3 44.502 A 42.338 42.338 0 0 1 38.139 46.065 Q 42.649 48.187 44.6 50.752 Q 47.3 54.302 47.3 58.802 A 12.926 12.926 0 0 1 46.404 63.682 A 11.957 11.957 0 0 1 43.6 67.802 A 10.748 10.748 0 0 1 39.962 70.065 Q 36.541 71.402 31.3 71.402 A 20.46 20.46 0 0 1 21.393 68.795 A 25.909 25.909 0 0 1 19.2 67.452 A 23.852 23.852 0 0 1 13.75 62.222 Q 11.441 59.222 9.6 55.202 L 13.7 52.402 A 27.072 27.072 0 0 0 16.643 58.035 A 21.192 21.192 0 0 0 21.2 62.852 A 19.878 19.878 0 0 0 25.349 65.332 A 14.81 14.81 0 0 0 31.3 66.602 A 25.442 25.442 0 0 0 34.317 66.436 Q 37.859 66.012 39.8 64.502 A 6.717 6.717 0 0 0 42.465 59.599 A 8.965 8.965 0 0 0 42.5 58.802 Q 42.5 55.602 40.3 53.252 A 10.526 10.526 0 0 0 38.512 51.758 Q 36.635 50.487 33.692 49.365 A 41.034 41.034 0 0 0 32.7 49.002 Z M 171.5 76.302 L 170.4 80.702 Q 167.9 81.302 165.3 81.302 A 20.349 20.349 0 0 1 160.357 80.72 A 17.479 17.479 0 0 1 157.3 79.652 Q 153.7 78.002 152.8 75.002 A 13.049 13.049 0 0 1 148.6 78.422 A 18.617 18.617 0 0 1 144.95 79.852 Q 139.8 81.302 133.9 81.302 Q 128.048 81.302 124.116 79.359 A 13.402 13.402 0 0 1 120.95 77.202 Q 116.5 73.102 116.4 66.002 L 116.4 65.702 A 21.709 21.709 0 0 1 117.051 60.24 A 15.471 15.471 0 0 1 121.05 53.102 A 19.259 19.259 0 0 1 125.488 49.826 Q 127.686 48.615 130.459 47.668 A 48.454 48.454 0 0 1 135.8 46.202 Q 139.539 45.441 142.247 44.511 A 26.658 26.658 0 0 0 144.45 43.652 Q 146.678 42.658 147.378 41.547 A 1.936 1.936 0 0 0 147.7 40.502 Q 147.7 39.157 147.213 38.33 A 2.441 2.441 0 0 0 146.15 37.352 A 5.171 5.171 0 0 0 145.147 37.007 Q 143.511 36.602 140.5 36.602 Q 138.902 36.602 136.828 37.156 A 26.081 26.081 0 0 0 135.2 37.652 Q 132.1 38.702 129.2 40.502 A 18.557 18.557 0 0 0 126.286 42.717 A 15.303 15.303 0 0 0 124.5 44.702 L 122 40.302 Q 126.1 36.202 131.3 34.002 A 33.708 33.708 0 0 1 134.957 32.683 Q 136.833 32.134 138.523 31.927 A 16.27 16.27 0 0 1 140.5 31.802 Q 147.9 31.802 150.2 33.952 Q 152.143 35.769 152.445 39.191 A 14.951 14.951 0 0 1 152.5 40.502 Q 152.5 43.002 148.5 46.102 A 19.328 19.328 0 0 1 145.001 48.22 Q 143.209 49.079 141.006 49.782 A 47.564 47.564 0 0 1 136.8 50.902 A 39.415 39.415 0 0 0 132.258 52.088 Q 130.013 52.83 128.232 53.79 A 15.951 15.951 0 0 0 125.05 56.002 A 11.484 11.484 0 0 0 121.476 62.578 A 16.897 16.897 0 0 0 121.2 65.702 L 121.2 65.902 A 12.871 12.871 0 0 0 121.685 69.271 A 9.188 9.188 0 0 0 124.6 73.802 Q 127.38 76.161 132.077 76.533 A 23.129 23.129 0 0 0 133.9 76.602 A 60.678 60.678 0 0 0 138.599 76.426 A 51.127 51.127 0 0 0 141.25 76.152 A 17.988 17.988 0 0 0 147.237 74.24 A 20.793 20.793 0 0 0 147.95 73.852 Q 151.2 72.002 154.4 67.902 Q 155.038 71.092 156.365 73.02 A 6.768 6.768 0 0 0 158.65 75.152 Q 161.8 76.902 165.4 76.902 Q 167 76.902 168.55 76.702 Q 170.1 76.502 171.5 76.302 Z M 290.2 76.302 L 289.1 80.702 Q 286.6 81.302 284 81.302 A 20.349 20.349 0 0 1 279.057 80.72 A 17.479 17.479 0 0 1 276 79.652 Q 272.4 78.002 271.5 75.002 A 13.049 13.049 0 0 1 267.3 78.422 A 18.617 18.617 0 0 1 263.65 79.852 Q 258.5 81.302 252.6 81.302 Q 246.748 81.302 242.816 79.359 A 13.402 13.402 0 0 1 239.65 77.202 Q 235.2 73.102 235.1 66.002 L 235.1 65.702 A 21.709 21.709 0 0 1 235.751 60.24 A 15.471 15.471 0 0 1 239.75 53.102 A 19.259 19.259 0 0 1 244.188 49.826 Q 246.386 48.615 249.159 47.668 A 48.454 48.454 0 0 1 254.5 46.202 Q 258.239 45.441 260.947 44.511 A 26.658 26.658 0 0 0 263.15 43.652 Q 265.378 42.658 266.078 41.547 A 1.936 1.936 0 0 0 266.4 40.502 Q 266.4 39.157 265.913 38.33 A 2.441 2.441 0 0 0 264.85 37.352 A 5.171 5.171 0 0 0 263.847 37.007 Q 262.211 36.602 259.2 36.602 Q 257.602 36.602 255.528 37.156 A 26.081 26.081 0 0 0 253.9 37.652 Q 250.8 38.702 247.9 40.502 A 18.557 18.557 0 0 0 244.986 42.717 A 15.303 15.303 0 0 0 243.2 44.702 L 240.7 40.302 Q 244.8 36.202 250 34.002 A 33.708 33.708 0 0 1 253.657 32.683 Q 255.533 32.134 257.223 31.927 A 16.27 16.27 0 0 1 259.2 31.802 Q 266.6 31.802 268.9 33.952 Q 270.843 35.769 271.145 39.191 A 14.951 14.951 0 0 1 271.2 40.502 Q 271.2 43.002 267.2 46.102 A 19.328 19.328 0 0 1 263.701 48.22 Q 261.909 49.079 259.706 49.782 A 47.564 47.564 0 0 1 255.5 50.902 A 39.415 39.415 0 0 0 250.958 52.088 Q 248.713 52.83 246.932 53.79 A 15.951 15.951 0 0 0 243.75 56.002 A 11.484 11.484 0 0 0 240.176 62.578 A 16.897 16.897 0 0 0 239.9 65.702 L 239.9 65.902 A 12.871 12.871 0 0 0 240.385 69.271 A 9.188 9.188 0 0 0 243.3 73.802 Q 246.08 76.161 250.777 76.533 A 23.129 23.129 0 0 0 252.6 76.602 A 60.678 60.678 0 0 0 257.299 76.426 A 51.127 51.127 0 0 0 259.95 76.152 A 17.988 17.988 0 0 0 265.937 74.24 A 20.793 20.793 0 0 0 266.65 73.852 Q 269.9 72.002 273.1 67.902 Q 273.738 71.092 275.065 73.02 A 6.768 6.768 0 0 0 277.35 75.152 Q 280.5 76.902 284.1 76.902 Q 285.7 76.902 287.25 76.702 Q 288.8 76.502 290.2 76.302 Z M 687 76.302 L 685.9 80.702 Q 683.4 81.302 680.8 81.302 A 20.349 20.349 0 0 1 675.857 80.72 A 17.479 17.479 0 0 1 672.8 79.652 Q 669.2 78.002 668.3 75.002 A 13.049 13.049 0 0 1 664.1 78.422 A 18.617 18.617 0 0 1 660.45 79.852 Q 655.3 81.302 649.4 81.302 Q 643.548 81.302 639.616 79.359 A 13.402 13.402 0 0 1 636.45 77.202 Q 632 73.102 631.9 66.002 L 631.9 65.702 A 21.709 21.709 0 0 1 632.551 60.24 A 15.471 15.471 0 0 1 636.55 53.102 A 19.259 19.259 0 0 1 640.988 49.826 Q 643.186 48.615 645.959 47.668 A 48.454 48.454 0 0 1 651.3 46.202 Q 655.039 45.441 657.747 44.511 A 26.658 26.658 0 0 0 659.95 43.652 Q 662.178 42.658 662.878 41.547 A 1.936 1.936 0 0 0 663.2 40.502 Q 663.2 39.157 662.713 38.33 A 2.441 2.441 0 0 0 661.65 37.352 A 5.171 5.171 0 0 0 660.647 37.007 Q 659.011 36.602 656 36.602 Q 654.402 36.602 652.328 37.156 A 26.081 26.081 0 0 0 650.7 37.652 Q 647.6 38.702 644.7 40.502 A 18.557 18.557 0 0 0 641.786 42.717 A 15.303 15.303 0 0 0 640 44.702 L 637.5 40.302 Q 641.6 36.202 646.8 34.002 A 33.708 33.708 0 0 1 650.457 32.683 Q 652.333 32.134 654.023 31.927 A 16.27 16.27 0 0 1 656 31.802 Q 663.4 31.802 665.7 33.952 Q 667.643 35.769 667.945 39.191 A 14.951 14.951 0 0 1 668 40.502 Q 668 43.002 664 46.102 A 19.328 19.328 0 0 1 660.501 48.22 Q 658.709 49.079 656.506 49.782 A 47.564 47.564 0 0 1 652.3 50.902 A 39.415 39.415 0 0 0 647.758 52.088 Q 645.513 52.83 643.732 53.79 A 15.951 15.951 0 0 0 640.55 56.002 A 11.484 11.484 0 0 0 636.976 62.578 A 16.897 16.897 0 0 0 636.7 65.702 L 636.7 65.902 A 12.871 12.871 0 0 0 637.185 69.271 A 9.188 9.188 0 0 0 640.1 73.802 Q 642.88 76.161 647.577 76.533 A 23.129 23.129 0 0 0 649.4 76.602 A 60.678 60.678 0 0 0 654.099 76.426 A 51.127 51.127 0 0 0 656.75 76.152 A 17.988 17.988 0 0 0 662.737 74.24 A 20.793 20.793 0 0 0 663.45 73.852 Q 666.7 72.002 669.9 67.902 Q 670.538 71.092 671.865 73.02 A 6.768 6.768 0 0 0 674.15 75.152 Q 677.3 76.902 680.9 76.902 Q 682.5 76.902 684.05 76.702 Q 685.6 76.502 687 76.302 Z M 616.5 80.102 L 616.5 41.602 A 17.117 17.117 0 0 0 615.904 36.98 A 13.366 13.366 0 0 0 613.15 31.802 A 10.771 10.771 0 0 0 605.316 27.926 A 13.813 13.813 0 0 0 604.5 27.902 A 38.049 38.049 0 0 0 599.492 28.215 Q 596.778 28.576 594.45 29.352 A 10.944 10.944 0 0 0 589.247 33.097 A 15.845 15.845 0 0 0 587.6 35.702 Q 585.7 31.402 581.45 29.652 A 23.902 23.902 0 0 0 576.876 28.261 A 19.389 19.389 0 0 0 573.2 27.902 Q 569.4 27.902 565.8 28.602 A 16.638 16.638 0 0 0 560.411 30.702 A 20.207 20.207 0 0 0 558.9 31.702 A 16.508 16.508 0 0 0 556.368 34.02 Q 555.277 35.231 554.221 36.782 A 37.479 37.479 0 0 0 552.6 39.402 L 552.6 24.402 L 557.4 24.402 L 557.4 28.802 Q 560.8 23.102 573.2 23.102 Q 578.4 23.102 582.25 25.152 A 14.378 14.378 0 0 1 584.793 26.851 Q 586.453 28.257 587.328 30.031 A 9.011 9.011 0 0 1 587.5 30.402 A 11.398 11.398 0 0 1 592.4 25.58 A 15.151 15.151 0 0 1 594 24.852 A 24.795 24.795 0 0 1 599.205 23.487 Q 601.61 23.114 604.325 23.103 A 40.908 40.908 0 0 1 604.5 23.102 A 17.417 17.417 0 0 1 609.664 23.846 A 15.246 15.246 0 0 1 613.2 25.452 A 16.127 16.127 0 0 1 619.014 31.741 A 19.092 19.092 0 0 1 619.15 32.002 A 19.523 19.523 0 0 1 621.111 38.502 A 24.685 24.685 0 0 1 621.3 41.602 L 621.3 80.102 L 616.5 80.102 Z M 193.1 80.102 L 173.1 24.502 L 178 24.502 L 196.4 75.302 L 209 75.302 L 227.1 24.502 L 232.2 24.502 L 212.4 80.102 L 193.1 80.102 Z M 510.4 24.402 L 515.2 24.402 L 515.2 59.602 A 17.968 17.968 0 0 1 513.283 64.151 A 14.26 14.26 0 0 1 509.3 68.452 Q 505 71.502 499.6 71.502 A 14.39 14.39 0 0 1 495.151 70.842 A 11.966 11.966 0 0 1 490.5 68.052 Q 487.235 64.923 486.931 59.204 A 22.646 22.646 0 0 1 486.9 58.002 L 486.9 24.402 L 491.7 24.402 L 491.7 58.002 A 12.831 12.831 0 0 0 491.935 60.542 Q 492.42 62.938 493.9 64.452 Q 496.1 66.702 499.6 66.702 A 12.311 12.311 0 0 0 504.447 65.757 A 11.814 11.814 0 0 0 506.4 64.702 A 9.542 9.542 0 0 0 510.319 59.289 A 12.166 12.166 0 0 0 510.4 59.002 L 510.4 24.402 Z M 335.6 80.102 L 335.6 46.502 A 12.831 12.831 0 0 0 335.365 43.963 Q 334.88 41.566 333.4 40.052 Q 331.2 37.802 327.7 37.802 Q 324 37.802 321 39.802 Q 318 41.802 316.9 45.502 L 316.9 80.102 L 312.1 80.102 L 312.1 44.902 A 19.081 19.081 0 0 1 313.945 40.513 A 14.28 14.28 0 0 1 318.05 36.002 Q 322.3 33.002 327.7 33.002 A 14.829 14.829 0 0 1 331.986 33.594 A 11.723 11.723 0 0 1 336.85 36.452 Q 340.012 39.525 340.358 45.096 A 22.702 22.702 0 0 1 340.4 46.502 L 340.4 80.102 L 335.6 80.102 Z M 603.8 80.102 L 603.8 47.102 Q 603.8 43.113 602.567 41.055 A 5.268 5.268 0 0 0 602.3 40.652 Q 600.8 38.602 597.4 38.602 A 8.371 8.371 0 0 0 595.085 38.906 A 6.209 6.209 0 0 0 591.95 40.952 Q 590 43.302 590 46.502 L 590 80.102 L 585.2 80.102 L 585.2 46.302 Q 585.2 41.202 588.5 37.502 A 10.866 10.866 0 0 1 595.543 33.911 A 15.308 15.308 0 0 1 597.4 33.802 Q 601.406 33.802 603.979 35.388 A 8.332 8.332 0 0 1 605.8 36.902 A 9.059 9.059 0 0 1 607.506 39.79 Q 608.6 42.665 608.6 47.102 L 608.6 80.102 L 603.8 80.102 Z M 512 80.102 L 512 75.002 A 11.404 11.404 0 0 1 508.952 77.932 Q 507.47 78.924 505.55 79.652 A 22.397 22.397 0 0 1 501.778 80.689 Q 499.858 81.053 497.617 81.201 A 48.939 48.939 0 0 1 494.4 81.302 A 24.952 24.952 0 0 1 487.967 80.517 A 17.974 17.974 0 0 1 479.6 75.702 A 18.894 18.894 0 0 1 474.402 65.076 A 26.467 26.467 0 0 1 474.1 61.002 L 474.1 24.402 L 478.9 24.402 L 478.9 61.002 A 18.96 18.96 0 0 0 479.541 66.059 A 14.178 14.178 0 0 0 483.1 72.302 A 13.979 13.979 0 0 0 490.833 76.299 A 20.077 20.077 0 0 0 494.4 76.602 Q 498.2 76.602 502 75.902 A 17.94 17.94 0 0 0 506.93 74.194 A 22.965 22.965 0 0 0 509.5 72.652 A 20.863 20.863 0 0 0 512.475 70.124 Q 513.834 68.75 515.178 66.984 A 44.831 44.831 0 0 0 516.8 64.702 L 516.8 80.102 L 512 80.102 Z M 348.4 80.102 L 348.4 43.502 Q 348.4 39.202 346.5 35.652 Q 344.6 32.102 341.15 30.002 A 14.162 14.162 0 0 0 336.176 28.173 A 19 19 0 0 0 332.9 27.902 Q 329.1 27.902 325.3 28.602 A 18.363 18.363 0 0 0 320.356 30.296 A 23.266 23.266 0 0 0 317.8 31.802 Q 315.016 33.683 312.289 37.263 A 43.49 43.49 0 0 0 310.5 39.802 L 310.5 24.402 L 315.3 24.402 L 315.3 29.502 A 11.574 11.574 0 0 1 318.27 26.61 Q 319.59 25.702 321.264 24.999 A 20.87 20.87 0 0 1 321.75 24.802 A 21.98 21.98 0 0 1 325.605 23.717 Q 327.558 23.342 329.839 23.196 A 47.837 47.837 0 0 1 332.9 23.102 A 23.534 23.534 0 0 1 338.35 23.706 A 18.392 18.392 0 0 1 343.65 25.852 Q 348.2 28.602 350.7 33.252 A 21.2 21.2 0 0 1 353.196 43.066 A 24.842 24.842 0 0 1 353.2 43.502 L 353.2 80.102 L 348.4 80.102 Z M 572.6 80.102 L 572.6 47.102 A 21.176 21.176 0 0 0 572.489 44.857 Q 572.237 42.498 571.41 41.043 A 5.619 5.619 0 0 0 571.2 40.702 A 4.424 4.424 0 0 0 568.751 38.923 Q 567.728 38.602 566.4 38.602 A 7.694 7.694 0 0 0 564.393 38.849 A 5.432 5.432 0 0 0 561.6 40.602 Q 559.9 42.602 559 45.702 L 559 80.102 L 554.2 80.102 L 554.2 45.102 A 26.711 26.711 0 0 1 555.583 41.451 Q 556.888 38.677 558.7 36.802 A 9.667 9.667 0 0 1 564.391 33.946 A 13.567 13.567 0 0 1 566.4 33.802 A 16.026 16.026 0 0 1 569.543 34.09 Q 571.337 34.449 572.711 35.256 A 7.976 7.976 0 0 1 574.7 36.902 A 9.082 9.082 0 0 1 576.319 39.718 Q 577.292 42.321 577.389 46.223 A 35.393 35.393 0 0 1 577.4 47.102 L 577.4 80.102 L 572.6 80.102 Z M 463.3 80.102 L 433.4 33.002 L 460.3 2.102 L 466.6 2.102 L 439.3 33.502 L 469 80.102 L 463.3 80.102 Z M 173.8 66.702 L 172.7 71.202 Q 172 71.302 171.35 71.352 Q 170.7 71.402 170.1 71.402 Q 167.023 71.402 164.998 70.278 A 6.702 6.702 0 0 1 163.45 69.102 A 7.625 7.625 0 0 1 161.491 65.458 Q 161.2 64.24 161.2 62.802 L 161.2 41.602 Q 161.2 34.402 156.35 31.152 A 16.246 16.246 0 0 0 152.084 29.18 Q 148.085 27.942 142.37 27.903 A 54.741 54.741 0 0 0 142 27.902 A 40.662 40.662 0 0 0 135.8 28.353 A 29.885 29.885 0 0 0 129.65 29.952 A 27.217 27.217 0 0 0 121.298 35.085 A 32.013 32.013 0 0 0 119.9 36.402 L 117.6 32.302 A 27.038 27.038 0 0 1 126.268 26.133 A 31.89 31.89 0 0 1 127.75 25.502 A 32.597 32.597 0 0 1 134.561 23.665 Q 138.028 23.102 142 23.102 Q 153.812 23.102 159.718 27.461 A 15.15 15.15 0 0 1 160.1 27.752 A 14.95 14.95 0 0 1 165.48 36.541 A 23.231 23.231 0 0 1 166 41.602 L 166 62.802 Q 166 64.422 166.786 65.364 A 2.997 2.997 0 0 0 167.45 65.952 A 5.571 5.571 0 0 0 169.289 66.714 Q 170.016 66.879 170.857 66.899 A 9.904 9.904 0 0 0 171.1 66.902 A 17.877 17.877 0 0 0 172.266 66.865 A 16.07 16.07 0 0 0 172.45 66.852 Q 173.1 66.802 173.8 66.702 Z M 292.5 66.702 L 291.4 71.202 Q 290.7 71.302 290.05 71.352 Q 289.4 71.402 288.8 71.402 Q 285.723 71.402 283.698 70.278 A 6.702 6.702 0 0 1 282.15 69.102 A 7.625 7.625 0 0 1 280.191 65.458 Q 279.9 64.24 279.9 62.802 L 279.9 41.602 Q 279.9 34.402 275.05 31.152 A 16.246 16.246 0 0 0 270.784 29.18 Q 266.785 27.942 261.07 27.903 A 54.741 54.741 0 0 0 260.7 27.902 A 40.662 40.662 0 0 0 254.5 28.353 A 29.885 29.885 0 0 0 248.35 29.952 A 27.217 27.217 0 0 0 239.998 35.085 A 32.013 32.013 0 0 0 238.6 36.402 L 236.3 32.302 A 27.038 27.038 0 0 1 244.968 26.133 A 31.89 31.89 0 0 1 246.45 25.502 A 32.597 32.597 0 0 1 253.261 23.665 Q 256.728 23.102 260.7 23.102 Q 272.512 23.102 278.418 27.461 A 15.15 15.15 0 0 1 278.8 27.752 A 14.95 14.95 0 0 1 284.18 36.541 A 23.231 23.231 0 0 1 284.7 41.602 L 284.7 62.802 Q 284.7 64.422 285.486 65.364 A 2.997 2.997 0 0 0 286.15 65.952 A 5.571 5.571 0 0 0 287.989 66.714 Q 288.716 66.879 289.557 66.899 A 9.904 9.904 0 0 0 289.8 66.902 A 17.877 17.877 0 0 0 290.966 66.865 A 16.07 16.07 0 0 0 291.15 66.852 Q 291.8 66.802 292.5 66.702 Z M 689.3 66.702 L 688.2 71.202 Q 687.5 71.302 686.85 71.352 Q 686.2 71.402 685.6 71.402 Q 682.523 71.402 680.498 70.278 A 6.702 6.702 0 0 1 678.95 69.102 A 7.625 7.625 0 0 1 676.991 65.458 Q 676.7 64.24 676.7 62.802 L 676.7 41.602 Q 676.7 34.402 671.85 31.152 A 16.246 16.246 0 0 0 667.584 29.18 Q 663.585 27.942 657.87 27.903 A 54.741 54.741 0 0 0 657.5 27.902 A 40.662 40.662 0 0 0 651.3 28.353 A 29.885 29.885 0 0 0 645.15 29.952 A 27.217 27.217 0 0 0 636.798 35.085 A 32.013 32.013 0 0 0 635.4 36.402 L 633.1 32.302 A 27.038 27.038 0 0 1 641.768 26.133 A 31.89 31.89 0 0 1 643.25 25.502 A 32.597 32.597 0 0 1 650.061 23.665 Q 653.528 23.102 657.5 23.102 Q 669.312 23.102 675.218 27.461 A 15.15 15.15 0 0 1 675.6 27.752 A 14.95 14.95 0 0 1 680.98 36.541 A 23.231 23.231 0 0 1 681.5 41.602 L 681.5 62.802 Q 681.5 64.422 682.286 65.364 A 2.997 2.997 0 0 0 682.95 65.952 A 5.571 5.571 0 0 0 684.789 66.714 Q 685.516 66.879 686.357 66.899 A 9.904 9.904 0 0 0 686.6 66.902 A 17.877 17.877 0 0 0 687.766 66.865 A 16.07 16.07 0 0 0 687.95 66.852 Q 688.6 66.802 689.3 66.702 Z M 201.1 69.002 L 186.3 24.502 L 191.4 24.502 L 200.1 50.602 Q 201.1 53.602 202.05 57.252 A 46.46 46.46 0 0 1 202.984 61.678 A 38.266 38.266 0 0 1 203.3 64.202 L 203.7 64.202 Q 203.9 60.902 204.65 57.502 Q 205.4 54.102 206.4 50.702 L 214.4 24.502 L 219.4 24.502 L 205.8 69.002 L 201.1 69.002 Z M 447.4 80.102 L 426.8 46.902 L 421.2 53.002 L 421.2 80.102 L 416.4 80.102 L 416.4 51.202 L 427.6 39.002 L 453.1 80.102 L 447.4 80.102 Z M 416.4 2.102 L 421.2 2.102 L 421.2 30.202 L 445.5 2.102 L 451.8 2.102 L 416.4 43.002 L 416.4 2.102 Z M 403.2 80.102 L 403.2 2.102 L 408 2.102 L 408 80.102 L 403.2 80.102 Z M 87.1 80.102 L 87.1 43.602 A 26.608 26.608 0 0 1 89.615 39.648 Q 91.305 37.472 93.292 36.031 A 15.116 15.116 0 0 1 94.65 35.152 Q 99.1 32.602 106.1 32.602 Q 107.2 32.602 108.3 32.652 Q 109.4 32.702 110.6 32.802 L 111.5 38.002 Q 109.8 37.602 108.15 37.452 A 36.337 36.337 0 0 0 105.856 37.314 A 31.293 31.293 0 0 0 105 37.302 A 19.934 19.934 0 0 0 100.127 37.855 A 11.669 11.669 0 0 0 91.9 44.702 L 91.9 80.102 L 87.1 80.102 Z M 708.9 80.102 L 708.9 43.602 A 26.608 26.608 0 0 1 711.415 39.648 Q 713.105 37.472 715.092 36.031 A 15.116 15.116 0 0 1 716.45 35.152 Q 720.9 32.602 727.9 32.602 Q 729 32.602 730.1 32.652 Q 731.2 32.702 732.4 32.802 L 733.3 38.002 Q 731.6 37.602 729.95 37.452 A 36.337 36.337 0 0 0 727.656 37.314 A 31.293 31.293 0 0 0 726.8 37.302 A 19.934 19.934 0 0 0 721.927 37.855 A 11.669 11.669 0 0 0 713.7 44.702 L 713.7 80.102 L 708.9 80.102 Z M 74.4 80.102 L 74.4 24.402 L 79.2 24.402 L 79.2 80.102 L 74.4 80.102 Z M 299.4 80.102 L 299.4 24.402 L 304.2 24.402 L 304.2 80.102 L 299.4 80.102 Z M 523.1 80.102 L 523.1 24.402 L 527.9 24.402 L 527.9 80.102 L 523.1 80.102 Z M 541.5 80.102 L 541.5 24.402 L 546.3 24.402 L 546.3 80.102 L 541.5 80.102 Z M 696.2 80.102 L 696.2 24.402 L 701 24.402 L 701 80.102 L 696.2 80.102 Z M 153 45.602 L 153 62.302 Q 152.2 65.602 149.85 68.052 Q 147.5 70.502 144.55 71.802 A 15.819 15.819 0 0 1 141.458 72.817 A 12.772 12.772 0 0 1 138.8 73.102 Q 135.491 73.102 133.273 72.128 A 7.364 7.364 0 0 1 131 70.602 Q 128.5 68.102 128.5 64.102 A 14.996 14.996 0 0 1 128.756 61.238 Q 129.323 58.326 131.15 56.602 A 12.161 12.161 0 0 1 133.822 54.724 Q 135.153 54.019 136.804 53.484 A 26.388 26.388 0 0 1 138.9 52.902 A 51.4 51.4 0 0 0 140.704 52.413 Q 142.572 51.872 145 51.052 Q 147.652 50.156 150.613 47.744 A 35.722 35.722 0 0 0 153 45.602 Z M 271.7 45.602 L 271.7 62.302 Q 270.9 65.602 268.55 68.052 Q 266.2 70.502 263.25 71.802 A 15.819 15.819 0 0 1 260.158 72.817 A 12.772 12.772 0 0 1 257.5 73.102 Q 254.191 73.102 251.973 72.128 A 7.364 7.364 0 0 1 249.7 70.602 Q 247.2 68.102 247.2 64.102 A 14.996 14.996 0 0 1 247.456 61.238 Q 248.023 58.326 249.85 56.602 A 12.161 12.161 0 0 1 252.522 54.724 Q 253.853 54.019 255.504 53.484 A 26.388 26.388 0 0 1 257.6 52.902 A 51.4 51.4 0 0 0 259.404 52.413 Q 261.272 51.872 263.7 51.052 Q 266.352 50.156 269.313 47.744 A 35.722 35.722 0 0 0 271.7 45.602 Z M 668.5 45.602 L 668.5 62.302 Q 667.7 65.602 665.35 68.052 Q 663 70.502 660.05 71.802 A 15.819 15.819 0 0 1 656.958 72.817 A 12.772 12.772 0 0 1 654.3 73.102 Q 650.991 73.102 648.773 72.128 A 7.364 7.364 0 0 1 646.5 70.602 Q 644 68.102 644 64.102 A 14.996 14.996 0 0 1 644.256 61.238 Q 644.823 58.326 646.65 56.602 A 12.161 12.161 0 0 1 649.322 54.724 Q 650.653 54.019 652.304 53.484 A 26.388 26.388 0 0 1 654.4 52.902 A 51.4 51.4 0 0 0 656.204 52.413 Q 658.072 51.872 660.5 51.052 Q 663.152 50.156 666.113 47.744 A 35.722 35.722 0 0 0 668.5 45.602 Z M 109 23.102 L 109.8 28.002 Q 103.7 28.002 99.2 29.202 Q 94.7 30.402 91.2 33.302 Q 88.18 35.804 85.533 40.092 A 43.089 43.089 0 0 0 84.7 41.502 L 84.7 24.402 L 89.5 24.402 L 89.5 29.902 Q 92.5 26.302 96.85 24.752 Q 101.2 23.202 109 23.102 Z M 730.8 23.102 L 731.6 28.002 Q 725.5 28.002 721 29.202 Q 716.5 30.402 713 33.302 Q 709.98 35.804 707.333 40.092 A 43.089 43.089 0 0 0 706.5 41.502 L 706.5 24.402 L 711.3 24.402 L 711.3 29.902 Q 714.3 26.302 718.65 24.752 Q 723 23.202 730.8 23.102 Z M 148.2 61.902 L 148.2 53.602 Q 146.048 55.485 141.324 56.885 A 44.108 44.108 0 0 1 140.2 57.202 A 26.611 26.611 0 0 0 138.285 57.792 Q 136.423 58.45 135.314 59.233 A 6.09 6.09 0 0 0 134.9 59.552 A 4.01 4.01 0 0 0 133.758 61.207 Q 133.5 61.872 133.388 62.705 A 10.434 10.434 0 0 0 133.3 64.102 A 4.5 4.5 0 0 0 133.677 66.013 Q 134.563 67.923 137.537 68.239 A 11.962 11.962 0 0 0 138.8 68.302 A 9.935 9.935 0 0 0 142.172 67.687 A 13.84 13.84 0 0 0 144.55 66.552 A 8.926 8.926 0 0 0 146.511 65.01 A 6.784 6.784 0 0 0 148.2 61.902 Z M 266.9 61.902 L 266.9 53.602 Q 264.748 55.485 260.024 56.885 A 44.108 44.108 0 0 1 258.9 57.202 A 26.611 26.611 0 0 0 256.985 57.792 Q 255.123 58.45 254.014 59.233 A 6.09 6.09 0 0 0 253.6 59.552 A 4.01 4.01 0 0 0 252.458 61.207 Q 252.2 61.872 252.088 62.705 A 10.434 10.434 0 0 0 252 64.102 A 4.5 4.5 0 0 0 252.377 66.013 Q 253.263 67.923 256.237 68.239 A 11.962 11.962 0 0 0 257.5 68.302 A 9.935 9.935 0 0 0 260.872 67.687 A 13.84 13.84 0 0 0 263.25 66.552 A 8.926 8.926 0 0 0 265.211 65.01 A 6.784 6.784 0 0 0 266.9 61.902 Z M 663.7 61.902 L 663.7 53.602 Q 661.548 55.485 656.824 56.885 A 44.108 44.108 0 0 1 655.7 57.202 A 26.611 26.611 0 0 0 653.785 57.792 Q 651.923 58.45 650.814 59.233 A 6.09 6.09 0 0 0 650.4 59.552 A 4.01 4.01 0 0 0 649.258 61.207 Q 649 61.872 648.888 62.705 A 10.434 10.434 0 0 0 648.8 64.102 A 4.5 4.5 0 0 0 649.177 66.013 Q 650.063 67.923 653.037 68.239 A 11.962 11.962 0 0 0 654.3 68.302 A 9.935 9.935 0 0 0 657.672 67.687 A 13.84 13.84 0 0 0 660.05 66.552 A 8.926 8.926 0 0 0 662.011 65.01 A 6.784 6.784 0 0 0 663.7 61.902 Z" vector-effect="non-scaling-stroke"/></g></svg>