<svg width="134.352" height="86.509" viewBox="0 0 134.352 86.509" xmlns="http://www.w3.org/2000/svg"><g id="svgGroup" stroke-linecap="round" fill-rule="evenodd" font-size="9pt" stroke="#3a5208" stroke-width="0.55mm" fill="#7a8f89" style="stroke:#3a5208;stroke-width:0.55mm;fill:#7a8f89"><path d="M 60.048 61.452 L 46.224 61.02 Q 38.664 73.116 33.912 83.052 A 7.529 7.529 0 0 1 33.124 84.362 Q 32.586 85.065 31.947 85.46 A 3.384 3.384 0 0 1 30.132 85.968 A 2.511 2.511 0 0 1 29.506 85.897 Q 28.701 85.689 28.548 84.874 A 2.264 2.264 0 0 1 28.512 84.456 A 4.255 4.255 0 0 1 28.655 83.396 Q 28.775 82.927 28.998 82.423 A 8.131 8.131 0 0 1 29.16 82.08 Q 30.996 78.084 33.966 72.792 A 339.481 339.481 0 0 1 36.976 67.546 Q 38.58 64.804 40.406 61.781 A 566.749 566.749 0 0 1 40.932 60.912 Q 33.292 60.912 30.073 61.475 A 11.683 11.683 0 0 0 29.16 61.668 A 13.636 13.636 0 0 0 25.621 63.043 A 10.581 10.581 0 0 0 21.924 66.528 A 9.026 9.026 0 0 1 21.562 66.996 Q 21.008 67.66 20.612 67.799 A 0.691 0.691 0 0 1 20.52 67.824 A 1.191 1.191 0 0 1 20.431 67.836 Q 19.898 67.884 19.873 67.339 A 1.202 1.202 0 0 1 19.872 67.284 A 1.286 1.286 0 0 1 20.157 66.478 A 1.767 1.767 0 0 1 20.304 66.312 Q 23.23 62.386 26.21 60.16 A 17.025 17.025 0 0 1 28.62 58.644 Q 32.94 56.376 43.632 56.7 Q 48.759 49.01 56.861 35.623 A 1452.234 1452.234 0 0 0 62.1 26.892 A 58.244 58.244 0 0 0 64.241 22.462 Q 66.528 17.118 66.528 13.392 A 8.777 8.777 0 0 0 65.728 9.511 Q 63.516 4.968 55.188 4.968 Q 41.364 4.968 29.484 12.204 A 56.564 56.564 0 0 0 19.981 19.669 A 65.471 65.471 0 0 0 17.712 21.978 A 55.395 55.395 0 0 0 10.665 31.232 A 49.622 49.622 0 0 0 8.856 34.506 Q 5.508 41.148 5.508 47.52 A 15.533 15.533 0 0 0 5.95 51.403 Q 7.242 56.392 12.313 57.341 A 14.104 14.104 0 0 0 14.904 57.564 A 15.097 15.097 0 0 0 19.22 56.967 A 12.991 12.991 0 0 0 22.356 55.566 Q 25.596 53.568 28.08 50.436 A 26.248 26.248 0 0 0 30.921 46.15 Q 32.94 42.277 32.94 38.448 A 10.668 10.668 0 0 0 32.676 36.014 A 7.63 7.63 0 0 0 31.212 32.94 A 0.729 0.729 0 0 1 30.996 32.421 A 0.956 0.956 0 0 1 30.996 32.4 A 0.941 0.941 0 0 1 31.045 32.083 Q 31.202 31.644 31.86 31.644 A 1.378 1.378 0 0 1 32.076 31.66 Q 32.424 31.715 32.508 31.968 A 10.398 10.398 0 0 1 34.625 37.592 A 13.228 13.228 0 0 1 34.668 38.664 Q 34.668 44.467 30.478 50.522 A 35.282 35.282 0 0 1 29.268 52.164 A 30.664 30.664 0 0 1 26.575 55.083 Q 25.067 56.506 23.528 57.498 A 16.602 16.602 0 0 1 22.41 58.158 A 15.782 15.782 0 0 1 16.835 59.899 A 19.884 19.884 0 0 1 14.364 60.048 A 17.42 17.42 0 0 1 9.954 59.521 A 12.15 12.15 0 0 1 3.78 55.782 A 14.772 14.772 0 0 1 0.299 48.394 A 20.515 20.515 0 0 1 0 44.82 A 29.847 29.847 0 0 1 4.557 29.048 A 36.568 36.568 0 0 1 5.454 27.648 Q 10.908 19.548 19.224 13.716 A 59.115 59.115 0 0 1 54.04 2.676 A 67.18 67.18 0 0 1 55.836 2.7 A 24.361 24.361 0 0 1 62.712 3.834 A 22.636 22.636 0 0 1 63.936 4.266 A 16.198 16.198 0 0 1 67.541 6.181 A 13.551 13.551 0 0 1 70.038 8.478 A 9.777 9.777 0 0 1 72.249 13.605 A 13.088 13.088 0 0 1 72.36 15.336 A 15.617 15.617 0 0 1 72.101 18.097 A 21.424 21.424 0 0 1 71.442 20.736 A 20.344 20.344 0 0 1 70.261 23.637 Q 69.576 25.024 68.637 26.476 A 34.691 34.691 0 0 1 68.364 26.892 L 48.816 56.916 Q 50.748 57.013 53.718 57.239 A 373.644 373.644 0 0 1 54.432 57.294 Q 56.808 57.48 59.797 57.793 A 328.578 328.578 0 0 1 62.64 58.104 Q 66.636 58.536 69.336 58.698 Q 71.403 58.822 72.711 58.851 A 33.048 33.048 0 0 0 73.44 58.86 L 77.706 58.86 A 48.559 48.559 0 0 0 78.751 58.85 Q 79.826 58.826 80.568 58.752 L 84.672 51.948 Q 90.072 42.984 95.958 34.938 Q 101.844 26.892 108.216 19.764 Q 122.688 3.78 132.948 0.108 Q 133.252 0.007 133.651 0.001 A 3.375 3.375 0 0 1 133.704 0 A 0.681 0.681 0 0 1 134.003 0.061 Q 134.352 0.23 134.352 0.864 A 0.584 0.584 0 0 1 134.166 1.293 A 0.931 0.931 0 0 1 134.028 1.404 A 23.152 23.152 0 0 0 131.793 2.821 Q 129.178 4.675 125.874 7.83 A 124.115 124.115 0 0 0 122.049 11.66 Q 120.364 13.417 118.526 15.443 A 260.556 260.556 0 0 0 114.696 19.764 A 263.797 263.797 0 0 0 103.722 33.372 A 240.885 240.885 0 0 0 102.276 35.316 A 183.888 183.888 0 0 0 91.981 50.853 A 170.51 170.51 0 0 0 91.908 50.976 L 87.696 58.104 Q 92.134 57.525 94.331 55.998 A 6.396 6.396 0 0 0 94.824 55.62 A 0.657 0.657 0 0 1 94.926 55.557 Q 95.295 55.374 95.58 55.944 A 2.153 2.153 0 0 1 95.656 56.148 Q 95.773 56.522 95.672 56.77 A 0.594 0.594 0 0 1 95.472 57.024 A 14.933 14.933 0 0 1 92.428 58.796 Q 90.893 59.477 89.017 59.981 A 33.771 33.771 0 0 1 86.292 60.588 Q 79.441 73.312 78.799 79.206 A 10.612 10.612 0 0 0 78.732 80.352 Q 78.732 83.558 81.119 83.965 A 4.433 4.433 0 0 0 81.864 84.024 A 7.927 7.927 0 0 0 83.697 83.793 Q 84.522 83.596 85.428 83.233 A 17.932 17.932 0 0 0 86.886 82.566 A 20.431 20.431 0 0 0 89.173 81.218 Q 90.317 80.433 91.196 79.56 A 12.004 12.004 0 0 0 91.476 79.272 A 1.899 1.899 0 0 1 91.564 79.189 Q 91.697 79.072 91.779 79.058 A 0.126 0.126 0 0 1 91.8 79.056 Q 92.124 79.056 92.124 79.704 Q 92.022 80.416 91.633 80.841 A 1.63 1.63 0 0 1 91.584 80.892 Q 90.577 81.9 89.047 82.907 A 25.847 25.847 0 0 1 88.128 83.484 Q 85.968 84.78 83.646 85.644 A 16.848 16.848 0 0 1 82.054 86.154 Q 80.703 86.508 79.596 86.508 Q 76.58 86.508 74.96 84.144 A 6.639 6.639 0 0 1 74.952 84.132 A 9.309 9.309 0 0 1 73.41 79.892 A 11.923 11.923 0 0 1 73.332 78.516 A 19.209 19.209 0 0 1 73.864 74.278 Q 75.076 68.962 79.056 61.452 Q 75.06 61.776 71.064 61.776 A 91.93 91.93 0 0 1 69.413 61.758 Q 66.991 61.714 62.788 61.558 A 943.341 943.341 0 0 1 60.048 61.452 Z M 102.526 80.235 A 5.912 5.912 0 0 0 104.544 80.568 Q 108.864 80.568 112.536 78.462 Q 116.208 76.356 119.34 73.332 Q 122.472 70.308 125.064 67.716 Q 127.224 65.556 128.466 63.936 Q 129.436 62.671 129.649 62.064 A 0.901 0.901 0 0 0 129.708 61.776 A 1.496 1.496 0 0 0 129.696 61.574 Q 129.657 61.295 129.503 61.191 A 0.396 0.396 0 0 0 129.276 61.128 A 0.183 0.183 0 0 0 129.27 61.128 Q 129.091 61.134 128.533 61.485 A 12.444 12.444 0 0 0 128.25 61.668 Q 127.44 62.208 126.36 63.612 Q 125.28 64.962 123.799 66.481 A 62.771 62.771 0 0 1 121.878 68.364 Q 119.124 70.956 116.1 73.224 A 51.516 51.516 0 0 1 113.324 75.172 A 38.548 38.548 0 0 1 110.322 76.95 A 22.235 22.235 0 0 1 109.782 77.227 Q 108.224 77.998 107.02 78.266 A 5.465 5.465 0 0 1 105.84 78.408 A 3.76 3.76 0 0 1 105.435 78.387 Q 103.646 78.193 103.252 76.214 A 6.489 6.489 0 0 1 103.14 74.952 A 6.498 6.498 0 0 1 103.299 73.595 Q 104.273 69.059 111.24 60.048 L 119.448 49.464 A 1.324 1.324 0 0 0 119.431 49.25 Q 119.292 48.402 118.044 47.682 A 10.495 10.495 0 0 0 117.928 47.616 Q 117.087 47.145 116.405 46.972 A 3.01 3.01 0 0 0 115.668 46.872 Q 112.57 46.958 108.1 53.217 A 63.123 63.123 0 0 0 105.732 56.808 Q 104.22 59.184 102.654 62.208 A 49.786 49.786 0 0 0 102.086 63.34 A 43.992 43.992 0 0 0 100.062 68.202 Q 99.469 69.919 99.219 71.402 A 12.275 12.275 0 0 0 99.036 73.44 A 18.575 18.575 0 0 0 99.052 74.225 Q 99.138 76.247 99.679 77.563 A 4.338 4.338 0 0 0 100.602 79.002 A 5.181 5.181 0 0 0 102.526 80.235 Z M 124.524 42.228 Q 122.688 42.228 121.338 41.04 A 4.565 4.565 0 0 1 120.549 40.155 A 3.205 3.205 0 0 1 119.988 38.34 A 3.109 3.109 0 0 1 120.291 36.921 Q 120.948 35.622 123.031 35.375 A 9.012 9.012 0 0 1 124.092 35.316 Q 125.604 35.316 127.116 36.342 A 4.201 4.201 0 0 1 127.914 37.031 A 2.716 2.716 0 0 1 128.628 38.88 A 2.401 2.401 0 0 1 128.12 40.342 Q 127.784 40.793 127.224 41.202 A 6.433 6.433 0 0 1 126.25 41.797 Q 125.669 42.08 125.107 42.177 A 3.411 3.411 0 0 1 124.524 42.228 Z" vector-effect="non-scaling-stroke"/></g></svg>