<svg width="715.392" height="90.613" viewBox="0 0 715.392 90.613" xmlns="http://www.w3.org/2000/svg"><g id="svgGroup" stroke-linecap="round" fill-rule="evenodd" font-size="9pt" stroke="#3a5208" stroke-width="0.55mm" fill="#7a8f89" style="stroke:#3a5208;stroke-width:0.55mm;fill:#7a8f89"><path d="M 379.404 63.072 L 378.756 63.612 A 21.512 21.512 0 0 0 382.145 67.541 A 16.534 16.534 0 0 0 387.072 70.632 A 27.232 27.232 0 0 0 394.441 72.405 A 33.581 33.581 0 0 0 397.872 72.576 Q 407.7 72.576 416.61 69.606 Q 425.52 66.636 432.702 60.75 Q 439.884 54.864 444.528 46.332 A 46.401 46.401 0 0 0 447.815 38.929 Q 449.381 34.285 449.576 29.876 A 28.305 28.305 0 0 0 449.604 28.62 Q 449.604 22.896 447.12 17.766 Q 444.636 12.636 440.478 8.964 A 20.812 20.812 0 0 0 434.327 5.141 A 19.356 19.356 0 0 0 431.244 4.212 Q 425.304 2.916 418.824 2.916 Q 402.192 2.916 388.152 10.584 A 50.001 50.001 0 0 0 382.029 14.488 Q 374.913 19.863 373.636 26.005 A 13.342 13.342 0 0 0 373.356 28.728 Q 373.356 31.428 374.976 33.372 A 23.693 23.693 0 0 0 375.436 33.894 Q 376.164 34.695 376.592 34.98 A 1.24 1.24 0 0 0 376.812 35.1 L 376.164 35.1 A 8.691 8.691 0 0 1 371.258 32.384 A 10.959 10.959 0 0 1 370.98 32.076 Q 368.82 29.592 368.82 26.568 Q 368.82 20.952 372.33 16.254 A 26.82 26.82 0 0 1 376.321 12.028 Q 378.979 9.734 382.536 7.668 A 57.226 57.226 0 0 1 401.948 0.948 A 76.019 76.019 0 0 1 414.18 0 Q 418.284 0 422.388 0.432 Q 426.492 0.864 430.488 1.728 Q 437.508 3.24 443.232 7.452 Q 448.956 11.664 452.412 17.712 Q 455.868 23.76 455.868 30.78 A 30.758 30.758 0 0 1 454.196 40.581 A 42.289 42.289 0 0 1 451.116 47.52 Q 446.364 56.268 438.858 62.154 Q 431.352 68.04 421.956 71.118 A 75.368 75.368 0 0 1 404.604 74.562 A 84.978 84.978 0 0 1 401.976 74.736 A 59.818 59.818 0 0 1 399.302 74.806 Q 388.487 74.84 381.655 70.679 A 21.356 21.356 0 0 1 376.056 65.772 Q 367.357 72.495 362.91 73.064 A 6.199 6.199 0 0 1 362.124 73.116 A 3.772 3.772 0 0 1 360.377 72.722 Q 359.281 72.16 358.614 70.794 Q 357.48 68.472 357.48 65.772 A 19.287 19.287 0 0 1 357.796 62.498 Q 358.399 59.034 360.151 54.265 A 96.187 96.187 0 0 1 361.476 50.868 Q 365.353 41.882 368.726 40.226 A 3.383 3.383 0 0 1 370.224 39.852 Q 372.276 39.852 373.356 46.332 A 192.533 192.533 0 0 0 374.24 50.75 Q 375.564 56.956 376.704 59.724 A 127.648 127.648 0 0 0 379.106 57.098 Q 381.848 54.022 385.378 49.75 A 405.87 405.87 0 0 0 385.614 49.464 Q 389.29 45.009 393.756 39.278 A 754.558 754.558 0 0 0 397.98 33.804 A 403.877 403.877 0 0 1 404.127 25.911 Q 416.281 10.731 420.996 8.723 A 5.278 5.278 0 0 1 421.2 8.64 A 10.906 10.906 0 0 1 424.234 7.921 A 10.03 10.03 0 0 1 425.088 7.884 A 8.335 8.335 0 0 1 426.536 8.003 Q 427.733 8.214 428.598 8.802 A 4.24 4.24 0 0 1 429.251 9.34 Q 429.594 9.692 429.768 10.077 A 1.995 1.995 0 0 1 429.948 10.908 Q 429.948 12.744 426.816 13.068 Q 424.548 14.256 421.254 17.172 A 114.375 114.375 0 0 0 417.446 20.709 A 146.566 146.566 0 0 0 414.342 23.814 A 180.13 180.13 0 0 0 409.189 29.343 A 159.227 159.227 0 0 0 407.592 31.158 Q 404.498 34.733 402.563 37.307 A 63.008 63.008 0 0 0 402.516 37.368 A 175.106 175.106 0 0 1 392.766 49.793 Q 387.755 55.585 382.745 60.159 A 96.314 96.314 0 0 1 379.404 63.072 Z M 63.612 40.824 L 44.604 36.504 A 24.299 24.299 0 0 1 40.249 35.122 Q 37.528 33.948 35.526 32.156 A 15.275 15.275 0 0 1 35.262 31.914 A 12.199 12.199 0 0 1 33.064 29.215 A 9.325 9.325 0 0 1 31.752 24.408 Q 31.752 19.651 36.118 14.894 A 33.242 33.242 0 0 1 39.852 11.448 A 36.977 36.977 0 0 1 46.159 7.33 A 44.766 44.766 0 0 1 49.464 5.778 Q 54.972 3.456 61.074 2.214 A 61.693 61.693 0 0 1 69.235 1.094 A 52.981 52.981 0 0 1 72.792 0.972 Q 79.82 0.972 85.053 2.893 A 24.735 24.735 0 0 1 86.454 3.456 Q 91.529 5.68 93.186 9.72 A 10.103 10.103 0 0 1 93.528 10.692 A 7.657 7.657 0 0 1 93.812 12.184 A 9.516 9.516 0 0 1 93.852 13.068 A 10.066 10.066 0 0 1 93.056 17.166 Q 91.562 20.558 87.264 22.248 A 28.728 28.728 0 0 1 84.714 23.154 Q 82.325 23.868 80.46 23.868 A 7.496 7.496 0 0 1 79.454 23.805 Q 78.925 23.733 78.491 23.58 A 3.282 3.282 0 0 1 77.76 23.22 A 0.729 0.729 0 0 1 77.545 22.701 A 0.956 0.956 0 0 1 77.544 22.68 A 0.457 0.457 0 0 1 77.787 22.304 Q 78.391 21.9 80.499 21.819 A 23.8 23.8 0 0 1 80.568 21.816 A 38.515 38.515 0 0 0 81.754 21.729 Q 82.283 21.682 82.743 21.623 A 16.714 16.714 0 0 0 83.592 21.492 Q 84.531 21.322 85.065 21.151 A 3.832 3.832 0 0 0 85.32 21.06 A 8.978 8.978 0 0 0 87.485 19.51 A 6.516 6.516 0 0 0 89.424 14.688 A 8.868 8.868 0 0 0 89.048 12.19 A 12.294 12.294 0 0 0 88.236 10.152 Q 84.888 3.996 71.496 3.996 A 50.476 50.476 0 0 0 63.385 4.674 A 57.607 57.607 0 0 0 61.452 5.022 Q 56.268 6.048 51.624 8.046 A 29.626 29.626 0 0 0 46.724 10.7 A 24.355 24.355 0 0 0 43.74 13.068 Q 39.121 17.332 38.301 20.866 A 6.584 6.584 0 0 0 38.124 22.356 A 6.208 6.208 0 0 0 39.514 26.248 Q 40.192 27.121 41.202 27.918 A 13.441 13.441 0 0 0 43.826 29.505 Q 46.447 30.736 50.295 31.488 A 44.193 44.193 0 0 0 50.544 31.536 L 63.288 33.912 A 49.855 49.855 0 0 1 68.389 35.152 Q 70.851 35.898 72.884 36.852 A 24.213 24.213 0 0 1 75.168 38.07 A 9.257 9.257 0 0 1 78.405 41.249 Q 79.704 43.435 79.704 46.44 Q 79.704 51.408 77.22 55.728 Q 74.736 60.048 70.578 63.45 A 38.676 38.676 0 0 1 62.434 68.536 A 43.687 43.687 0 0 1 61.128 69.12 A 59.752 59.752 0 0 1 47.172 73.25 Q 40.477 74.412 32.832 74.412 Q 30.78 74.412 28.728 74.304 Q 26.676 74.196 24.732 73.98 Q 25.886 74.64 27.512 75.299 A 38.899 38.899 0 0 0 28.566 75.708 A 42.369 42.369 0 0 0 30.98 76.52 Q 32.181 76.886 33.525 77.231 A 69.241 69.241 0 0 0 33.912 77.328 A 0.575 0.575 0 0 1 34.069 77.406 Q 34.219 77.515 34.235 77.714 A 0.603 0.603 0 0 1 34.236 77.76 Q 34.236 78.727 31.995 78.732 A 10.453 10.453 0 0 1 31.968 78.732 Q 27.54 78.732 20.952 73.44 Q 17.084 72.811 14.152 71.844 A 28.763 28.763 0 0 1 13.014 71.442 A 24.567 24.567 0 0 1 10.349 70.263 Q 8.775 69.444 7.56 68.472 A 20.131 20.131 0 0 1 4.479 65.121 A 27.545 27.545 0 0 1 2.268 61.56 A 21.563 21.563 0 0 1 0.718 57.842 A 15.699 15.699 0 0 1 0 53.244 A 11.141 11.141 0 0 1 0.47 49.965 A 9.789 9.789 0 0 1 1.404 47.844 Q 4.644 42.12 9.612 42.12 A 3.565 3.565 0 0 1 12.874 44.137 Q 13.702 45.607 14.002 48.148 A 20.986 20.986 0 0 1 14.04 48.492 Q 14.619 53.04 15.04 56.164 A 480.966 480.966 0 0 0 15.282 57.942 A 114.837 114.837 0 0 0 15.487 59.362 Q 15.839 61.689 16.092 62.532 Q 17.712 67.824 21.6 71.496 A 43.542 43.542 0 0 0 27.566 72.332 A 53.225 53.225 0 0 0 31.428 72.468 Q 43.092 72.468 53.784 68.04 A 44.879 44.879 0 0 0 61.013 64.097 A 50.914 50.914 0 0 0 62.64 62.964 A 35.314 35.314 0 0 0 67.237 59.017 A 29.335 29.335 0 0 0 69.768 56.052 Q 72.013 53.03 72.463 50.146 A 9.312 9.312 0 0 0 72.576 48.708 Q 72.576 44.117 65.242 41.381 A 32.256 32.256 0 0 0 63.612 40.824 Z M 121.932 52.704 L 127.764 38.664 A 73.551 73.551 0 0 1 124.653 38.573 Q 116.964 38.168 116.964 36.072 A 2.084 2.084 0 0 1 117.705 34.438 A 2.946 2.946 0 0 1 118.044 34.182 Q 118.913 33.617 119.503 33.507 A 1.468 1.468 0 0 1 119.772 33.48 A 5.717 5.717 0 0 1 119.838 33.481 Q 120.204 33.487 122.472 33.534 Q 124.457 33.576 127.771 33.649 A 11078.926 11078.926 0 0 1 129.924 33.696 Q 138.703 14.169 146.292 10.838 A 7.604 7.604 0 0 1 149.364 10.152 Q 152.416 10.152 155.383 12.678 A 16.648 16.648 0 0 1 156.168 13.392 A 2.904 2.904 0 0 1 156.991 15.072 A 4.045 4.045 0 0 1 157.032 15.66 A 8.618 8.618 0 0 1 156.964 16.798 Q 156.798 18.037 156.229 18.582 A 1.583 1.583 0 0 1 155.088 19.008 A 0.788 0.788 0 0 1 154.671 18.879 Q 154.399 18.711 154.128 18.325 A 4.017 4.017 0 0 1 154.008 18.144 Q 153.576 17.388 152.604 16.902 A 5.115 5.115 0 0 0 151.803 16.579 Q 151.322 16.433 150.87 16.418 A 3.107 3.107 0 0 0 150.768 16.416 A 7.729 7.729 0 0 0 145.256 18.692 A 10.147 10.147 0 0 0 145.098 18.846 A 22.225 22.225 0 0 0 142.891 21.445 Q 141.681 23.099 140.562 25.164 Q 138.456 29.052 136.08 33.696 L 137.376 33.696 A 679.827 679.827 0 0 0 142.149 33.681 Q 148.619 33.635 151.82 33.455 A 45.718 45.718 0 0 0 153.036 33.372 A 0.952 0.952 0 0 1 153.21 33.432 Q 153.468 33.554 153.468 33.804 A 0.529 0.529 0 0 1 153.164 34.174 Q 152.171 34.82 147.937 35.74 A 114.374 114.374 0 0 1 145.8 36.18 Q 142.776 36.612 139.86 37.152 Q 136.944 37.692 133.92 38.232 A 249.073 249.073 0 0 1 132.776 40.66 Q 132.261 41.738 131.684 42.926 A 473.981 473.981 0 0 1 130.464 45.414 Q 128.412 49.572 125.82 54.648 Q 121.934 61.925 119.124 66.922 A 297.876 297.876 0 0 1 117.504 69.768 A 327.546 327.546 0 0 1 116.18 72.045 Q 114.367 75.128 113.361 76.645 A 24.473 24.473 0 0 1 112.968 77.22 A 56.976 56.976 0 0 1 108.588 82.762 Q 103.32 88.574 98.19 90.083 A 12.638 12.638 0 0 1 94.608 90.612 A 6.813 6.813 0 0 1 89.534 88.395 A 9.476 9.476 0 0 1 89.1 87.912 A 10.695 10.695 0 0 1 87.454 85.298 A 8.769 8.769 0 0 1 86.724 82.08 A 4.307 4.307 0 0 1 86.868 81.611 Q 87.179 80.784 87.696 80.784 Q 88.306 80.784 88.438 82.266 A 7.972 7.972 0 0 1 88.452 82.458 A 4.148 4.148 0 0 0 88.964 84.167 Q 89.273 84.741 89.766 85.309 A 8.649 8.649 0 0 0 90.18 85.752 A 7.303 7.303 0 0 0 91.167 86.589 Q 92.294 87.372 93.42 87.372 Q 102.6 87.372 110.16 76.032 Q 111.731 73.717 113.872 69.788 A 174.19 174.19 0 0 0 115.236 67.23 A 134.925 134.925 0 0 0 117.595 62.479 Q 118.616 60.326 119.701 57.882 A 280.146 280.146 0 0 0 121.932 52.704 Z M 173.28 68.584 A 2.732 2.732 0 0 0 173.988 68.688 A 31.758 31.758 0 0 1 174.878 67.249 Q 175.379 66.482 175.989 65.623 A 75.17 75.17 0 0 1 177.39 63.72 A 409.239 409.239 0 0 1 178.864 61.792 Q 180.583 59.556 182.736 56.808 Q 184.491 54.581 186.014 52.754 A 120.651 120.651 0 0 1 187.758 50.706 Q 189.972 48.168 191.376 46.764 A 52.122 52.122 0 0 0 190.428 50.241 Q 190.047 51.874 189.852 53.298 A 20.416 20.416 0 0 0 189.648 56.052 A 14.014 14.014 0 0 0 189.726 57.52 A 15.672 15.672 0 0 0 190.62 61.29 A 13.249 13.249 0 0 0 190.895 61.978 A 11.149 11.149 0 0 0 193.482 65.718 Q 195.372 67.5 198.072 67.5 Q 206.064 67.5 212.976 59.076 Q 219.564 51.192 219.564 43.416 A 12.205 12.205 0 0 0 219.564 43.4 Q 219.563 42.365 219.386 40.929 A 40.549 40.549 0 0 0 219.186 39.528 A 28.225 28.225 0 0 0 219.161 39.372 Q 218.79 37.124 218.268 36.288 Q 217.749 35.175 217.203 34.648 A 1.868 1.868 0 0 0 216.702 34.29 Q 216.247 34.078 215.842 33.985 A 2.67 2.67 0 0 0 215.244 33.912 A 0.955 0.955 0 0 0 215.004 33.94 Q 214.711 34.016 214.628 34.304 A 0.933 0.933 0 0 0 214.596 34.56 A 0.956 0.956 0 0 0 214.597 34.581 A 0.729 0.729 0 0 0 214.812 35.1 A 6.603 6.603 0 0 1 214.999 35.434 Q 215.27 35.95 215.487 36.573 A 12.089 12.089 0 0 1 215.838 37.8 Q 216.216 39.42 216.216 41.796 A 14.04 14.04 0 0 1 216.174 42.868 Q 216.083 44.058 215.795 45.388 A 27.374 27.374 0 0 1 215.082 48.006 A 38.602 38.602 0 0 1 213.679 51.667 A 52.799 52.799 0 0 1 211.788 55.512 Q 208.872 60.912 206.118 62.964 Q 203.364 65.016 199.368 65.016 Q 195.718 65.016 195.005 60.611 A 15.098 15.098 0 0 1 194.832 58.212 A 14.577 14.577 0 0 1 195.319 54.49 A 17.305 17.305 0 0 1 197.046 50.328 Q 199.26 46.44 202.392 42.12 A 79.403 79.403 0 0 0 203.101 41.2 Q 205.092 38.573 205.092 38.016 A 1.901 1.901 0 0 0 204.892 37.19 Q 204.746 36.885 204.494 36.576 A 5.116 5.116 0 0 0 203.958 36.018 A 5.628 5.628 0 0 0 203.809 35.888 Q 203.404 35.547 202.992 35.335 A 2.942 2.942 0 0 0 201.636 34.992 A 2.018 2.018 0 0 0 201.343 35.015 Q 198.61 35.417 191.594 42.978 A 161.878 161.878 0 0 0 187.92 47.088 Q 185.22 50.436 182.52 53.676 Q 179.82 56.916 177.012 60.264 A 1.63 1.63 0 0 1 177.01 60.183 Q 177.01 57.912 182.736 47.52 A 1494.836 1494.836 0 0 0 184.155 45.013 Q 188.029 38.151 188.583 36.96 A 0.993 0.993 0 0 0 188.676 36.72 A 1.515 1.515 0 0 0 188.637 36.388 Q 188.486 35.718 187.758 34.776 A 3.827 3.827 0 0 0 187.37 34.343 A 2.571 2.571 0 0 0 185.544 33.588 Q 182.886 33.588 177.83 43.69 A 141.965 141.965 0 0 0 175.5 48.6 Q 170.323 60.008 169.352 63.858 A 6.072 6.072 0 0 0 169.128 65.232 A 1.399 1.399 0 0 0 169.294 65.872 Q 169.696 66.659 171.072 67.5 Q 172.363 68.336 173.28 68.584 Z M 146.016 33.264 L 152.28 33.264 Q 154.224 30.78 156.276 27.972 A 36.292 36.292 0 0 1 157.578 26.417 Q 159.527 24.228 160.827 23.689 A 2.958 2.958 0 0 1 160.92 23.652 L 161.244 23.652 Q 162 23.652 163.404 24.408 A 7.173 7.173 0 0 1 164.078 24.834 Q 164.748 25.317 164.993 25.8 A 1.216 1.216 0 0 1 165.132 26.352 Q 165.132 27.674 160.536 32.923 A 120.887 120.887 0 0 1 159.948 33.588 Q 160.92 33.696 162.756 33.696 L 167.292 33.696 L 171.018 33.696 Q 173.448 33.696 176.094 33.642 Q 178.74 33.588 180.684 33.534 Q 182.519 33.483 182.815 33.481 A 3.148 3.148 0 0 1 182.844 33.48 A 0.871 0.871 0 0 1 182.971 33.533 Q 183.168 33.636 183.168 33.804 Q 183.168 34.771 170.558 36.379 A 339.549 339.549 0 0 1 170.424 36.396 Q 164.884 37.141 161.338 37.632 A 861.564 861.564 0 0 0 159.354 37.908 Q 155.52 38.448 155.196 38.556 A 11.472 11.472 0 0 0 154.295 39.431 Q 153.362 40.428 152.234 41.981 A 50.066 50.066 0 0 0 151.524 42.984 Q 149.364 46.116 147.204 50.004 A 80.843 80.843 0 0 0 144.996 54.259 A 63.822 63.822 0 0 0 143.586 57.402 Q 142.396 60.268 142.177 62.089 A 6.459 6.459 0 0 0 142.128 62.856 A 3.757 3.757 0 0 0 142.494 64.525 A 3.792 3.792 0 0 0 143.424 65.718 A 3.83 3.83 0 0 0 144.624 66.409 Q 145.695 66.808 147.279 66.848 A 14.234 14.234 0 0 0 147.636 66.852 A 11.002 11.002 0 0 0 149.27 66.721 Q 150.102 66.595 151.038 66.351 A 23.923 23.923 0 0 0 152.28 65.988 A 43.497 43.497 0 0 0 157.258 64.061 A 40.18 40.18 0 0 0 157.41 63.99 Q 159.75 62.899 160.838 62.258 A 12.146 12.146 0 0 0 160.92 62.208 A 40.802 40.802 0 0 0 163.395 60.549 Q 164.666 59.632 166.04 58.519 A 76.265 76.265 0 0 0 167.13 57.618 A 67.619 67.619 0 0 0 171.783 53.3 A 79.977 79.977 0 0 0 173.88 51.084 A 18.81 18.81 0 0 1 174.413 50.571 Q 175.218 49.827 175.667 49.637 A 0.702 0.702 0 0 1 175.932 49.572 A 0.34 0.34 0 0 1 176.082 49.603 Q 176.225 49.672 176.251 49.899 A 0.945 0.945 0 0 1 176.256 50.004 A 1.513 1.513 0 0 1 176.155 50.504 Q 175.886 51.258 174.899 52.491 A 21.047 21.047 0 0 1 174.636 52.812 Q 172.044 55.944 168.858 58.806 A 47.691 47.691 0 0 1 162.328 63.708 A 52.761 52.761 0 0 1 161.784 64.044 A 42.099 42.099 0 0 1 157.583 66.305 A 30.818 30.818 0 0 1 153.306 67.932 A 31.386 31.386 0 0 1 149.522 68.805 A 23.172 23.172 0 0 1 145.8 69.12 Q 143.124 69.12 141.322 68.117 A 6.255 6.255 0 0 1 140.346 67.446 Q 138.421 65.834 138.351 61.765 A 18.061 18.061 0 0 1 138.348 61.452 A 10.796 10.796 0 0 1 138.525 59.597 Q 138.843 57.783 139.735 55.457 A 36.246 36.246 0 0 1 139.86 55.134 Q 141.372 51.3 143.64 46.872 Q 145.908 42.444 148.176 38.124 Q 146.772 38.448 145.692 38.448 A 6.196 6.196 0 0 1 144.51 38.346 Q 142.611 37.975 142.464 36.26 A 3.479 3.479 0 0 1 142.452 35.964 A 2.448 2.448 0 0 1 142.587 35.134 A 2.069 2.069 0 0 1 143.37 34.128 A 5.922 5.922 0 0 1 143.976 33.75 Q 144.292 33.58 144.586 33.483 A 2.644 2.644 0 0 1 145.044 33.372 L 145.314 33.372 A 1.773 1.773 0 0 0 145.499 33.362 Q 145.719 33.339 146.016 33.264 Z M 279.936 37.476 L 271.944 47.844 A 153.66 153.66 0 0 1 269.901 50.457 Q 266.145 55.145 264.69 55.98 A 1.12 1.12 0 0 1 264.168 56.16 Q 263.628 56.16 263.628 55.728 Q 263.628 55.188 264.168 54.324 A 3.948 3.948 0 0 1 264.402 53.926 Q 264.679 53.505 265.149 52.955 A 19.103 19.103 0 0 1 265.464 52.596 Q 269.568 47.844 273.024 43.2 A 71.496 71.496 0 0 0 276.536 38.044 A 56.933 56.933 0 0 0 278.748 34.128 A 39.698 39.698 0 0 1 279.725 30.935 Q 281.552 25.82 283.961 24.923 A 2.989 2.989 0 0 1 285.012 24.732 A 3.943 3.943 0 0 1 285.965 24.837 Q 287.496 25.22 287.496 27 A 4.33 4.33 0 0 1 287.246 28.371 Q 286.674 30.073 284.796 32.4 Q 282.204 35.748 282.204 35.856 Q 282.204 37.742 284.517 38.06 A 7.626 7.626 0 0 0 285.552 38.124 A 6.444 6.444 0 0 0 287.336 37.856 Q 288.536 37.51 289.872 36.72 L 292.68 34.992 A 0.806 0.806 0 0 1 292.836 34.936 Q 293.004 34.892 293.247 34.885 A 3.211 3.211 0 0 1 293.328 34.884 Q 294.624 34.884 295.596 35.964 Q 296.568 37.044 296.244 37.908 L 288.792 47.304 Q 283.375 54.245 282.204 59.063 A 10.595 10.595 0 0 0 281.88 61.56 Q 281.88 66.42 286.632 66.42 Q 289.569 66.42 292.904 64.824 A 22.546 22.546 0 0 0 293.598 64.476 A 42.004 42.004 0 0 0 299.732 60.542 A 47.369 47.369 0 0 0 300.834 59.67 A 59.428 59.428 0 0 0 303.876 57.023 Q 305.26 55.728 306.4 54.468 A 35.606 35.606 0 0 0 306.72 54.108 L 309.312 51.084 L 309.852 50.544 Q 310.091 50.306 310.271 50.243 A 0.369 0.369 0 0 1 310.392 50.22 A 1.088 1.088 0 0 1 310.691 50.258 Q 311.027 50.354 311.116 50.696 A 1.114 1.114 0 0 1 311.148 50.976 Q 311.148 51.192 310.932 51.732 A 3.247 3.247 0 0 1 310.714 52.171 Q 310.505 52.526 310.176 52.92 L 306.72 56.808 Q 304.246 59.605 300.647 62.456 A 64.587 64.587 0 0 1 300.618 62.478 Q 297 65.34 293.166 67.176 A 22.123 22.123 0 0 1 290.39 68.295 Q 288.158 69.012 286.2 69.012 Q 281.556 69.012 279.828 66.582 A 8.637 8.637 0 0 1 278.567 63.861 Q 278.1 62.181 278.1 60.048 Q 278.1 55.512 280.908 49.248 A 44.142 44.142 0 0 1 282.157 46.608 A 35.073 35.073 0 0 1 283.176 44.766 A 42.583 42.583 0 0 1 285.258 41.587 A 38.19 38.19 0 0 1 285.66 41.04 Q 285.321 41.125 285.048 41.143 A 2.164 2.164 0 0 1 284.904 41.148 L 284.256 41.148 A 3.624 3.624 0 0 1 281.78 40.142 Q 281.21 39.631 280.702 38.859 A 11.128 11.128 0 0 1 279.936 37.476 Z M 684.18 37.476 L 676.188 47.844 A 153.66 153.66 0 0 1 674.145 50.457 Q 670.389 55.145 668.934 55.98 A 1.12 1.12 0 0 1 668.412 56.16 Q 667.872 56.16 667.872 55.728 Q 667.872 55.188 668.412 54.324 A 3.948 3.948 0 0 1 668.646 53.926 Q 668.923 53.505 669.393 52.955 A 19.103 19.103 0 0 1 669.708 52.596 Q 673.812 47.844 677.268 43.2 A 71.496 71.496 0 0 0 680.78 38.044 A 56.933 56.933 0 0 0 682.992 34.128 A 39.698 39.698 0 0 1 683.969 30.935 Q 685.796 25.82 688.205 24.923 A 2.989 2.989 0 0 1 689.256 24.732 A 3.943 3.943 0 0 1 690.209 24.837 Q 691.74 25.22 691.74 27 A 4.33 4.33 0 0 1 691.49 28.371 Q 690.918 30.073 689.04 32.4 Q 686.448 35.748 686.448 35.856 Q 686.448 37.742 688.761 38.06 A 7.626 7.626 0 0 0 689.796 38.124 A 6.444 6.444 0 0 0 691.58 37.856 Q 692.78 37.51 694.116 36.72 L 696.924 34.992 A 0.806 0.806 0 0 1 697.08 34.936 Q 697.248 34.892 697.491 34.885 A 3.211 3.211 0 0 1 697.572 34.884 Q 698.868 34.884 699.84 35.964 Q 700.812 37.044 700.488 37.908 L 693.036 47.304 Q 687.619 54.245 686.448 59.063 A 10.595 10.595 0 0 0 686.124 61.56 Q 686.124 66.42 690.876 66.42 Q 693.813 66.42 697.148 64.824 A 22.546 22.546 0 0 0 697.842 64.476 A 42.004 42.004 0 0 0 703.976 60.542 A 47.369 47.369 0 0 0 705.078 59.67 A 59.428 59.428 0 0 0 708.12 57.023 Q 709.504 55.728 710.644 54.468 A 35.606 35.606 0 0 0 710.964 54.108 L 713.556 51.084 L 714.096 50.544 Q 714.335 50.306 714.515 50.243 A 0.369 0.369 0 0 1 714.636 50.22 A 1.088 1.088 0 0 1 714.935 50.258 Q 715.271 50.354 715.36 50.696 A 1.114 1.114 0 0 1 715.392 50.976 Q 715.392 51.192 715.176 51.732 A 3.247 3.247 0 0 1 714.958 52.171 Q 714.749 52.526 714.42 52.92 L 710.964 56.808 Q 708.49 59.605 704.891 62.456 A 64.587 64.587 0 0 1 704.862 62.478 Q 701.244 65.34 697.41 67.176 A 22.123 22.123 0 0 1 694.634 68.295 Q 692.402 69.012 690.444 69.012 Q 685.8 69.012 684.072 66.582 A 8.637 8.637 0 0 1 682.811 63.861 Q 682.344 62.181 682.344 60.048 Q 682.344 55.512 685.152 49.248 A 44.142 44.142 0 0 1 686.401 46.608 A 35.073 35.073 0 0 1 687.42 44.766 A 42.583 42.583 0 0 1 689.502 41.587 A 38.19 38.19 0 0 1 689.904 41.04 Q 689.565 41.125 689.292 41.143 A 2.164 2.164 0 0 1 689.148 41.148 L 688.5 41.148 A 3.624 3.624 0 0 1 686.024 40.142 Q 685.454 39.631 684.946 38.859 A 11.128 11.128 0 0 1 684.18 37.476 Z M 243 56.916 L 236.304 63.396 Q 234.32 65.381 232.591 66.621 A 15.605 15.605 0 0 1 230.85 67.716 A 17.032 17.032 0 0 1 229.556 68.343 Q 227.995 69.012 226.908 69.012 A 7.915 7.915 0 0 1 223.749 68.331 A 11.181 11.181 0 0 1 221.724 67.176 A 8.799 8.799 0 0 1 220.267 65.902 Q 219.026 64.525 218.808 62.856 A 11.204 11.204 0 0 1 218.716 61.412 Q 218.716 54.712 226.414 46.105 A 68.957 68.957 0 0 1 229.284 43.092 Q 239.05 33.327 247.165 31.892 A 15.756 15.756 0 0 1 249.912 31.644 Q 251.778 31.644 253.034 32.314 A 4.353 4.353 0 0 1 253.8 32.832 Q 254.556 33.588 254.934 34.884 A 13.573 13.573 0 0 0 255.059 35.292 Q 255.299 36.025 255.462 36.153 A 0.109 0.109 0 0 0 255.528 36.18 Q 255.96 36.18 256.284 36.018 A 1.509 1.509 0 0 1 256.725 35.88 A 2.008 2.008 0 0 1 257.04 35.856 A 3.092 3.092 0 0 1 259.245 36.767 A 4.06 4.06 0 0 1 259.308 36.828 Q 260.28 37.8 260.388 38.556 A 0.02 0.02 0 0 1 260.39 38.565 Q 260.39 38.884 255.159 46.731 A 1242.757 1242.757 0 0 1 253.476 49.248 A 96.051 96.051 0 0 0 251.292 52.577 Q 246.628 60.042 247.091 63.102 A 3.269 3.269 0 0 0 247.104 63.18 A 5.44 5.44 0 0 0 247.403 64.148 Q 247.619 64.658 247.924 64.996 A 2.001 2.001 0 0 0 249.48 65.664 A 6.563 6.563 0 0 0 252.502 64.711 Q 258.473 61.456 270 47.088 Q 270.324 46.656 270.648 46.656 Q 271.188 46.656 271.188 47.412 A 2.038 2.038 0 0 1 271.084 48.026 Q 270.869 48.702 270.216 49.572 A 138.7 138.7 0 0 1 264.907 56.313 Q 257.064 65.605 251.761 67.535 A 7.64 7.64 0 0 1 249.156 68.04 A 5.186 5.186 0 0 1 247.324 67.718 A 3.964 3.964 0 0 1 247.32 67.716 Q 242.568 65.88 242.568 60.588 Q 242.568 58.752 243 56.916 Z M 484.812 68.202 A 10.392 10.392 0 0 0 485.228 68.399 Q 486.119 68.796 486.648 68.796 Q 490.428 67.608 495.234 64.26 A 81.723 81.723 0 0 0 497.549 62.584 Q 501.432 59.672 505.98 55.62 A 96.091 96.091 0 0 0 508.855 52.914 Q 511.121 50.687 512.956 48.558 A 48.561 48.561 0 0 0 516.456 44.01 Q 520.128 38.556 520.128 34.236 Q 520.128 32.537 519.73 31.19 A 6.502 6.502 0 0 0 517.806 28.08 Q 515.484 26.028 512.352 26.028 A 2.557 2.557 0 0 0 512.161 26.035 Q 511.164 26.11 511.164 27 A 0.915 0.915 0 0 0 511.268 27.437 Q 511.445 27.769 511.92 27.972 A 12.479 12.479 0 0 1 512.961 28.487 Q 514.831 29.527 515.646 30.942 Q 516.672 32.724 516.672 34.884 Q 516.672 37.409 515.268 40.367 A 24.382 24.382 0 0 1 513.702 43.146 Q 511.66 46.302 507.857 49.943 A 78.224 78.224 0 0 1 504.036 53.352 A 200.928 200.928 0 0 1 501.792 55.179 Q 494.87 60.725 490.738 62.914 A 16.057 16.057 0 0 1 488.16 64.044 A 1.746 1.746 0 0 1 488.155 64.005 Q 487.879 61.569 493.128 49.464 A 7274.806 7274.806 0 0 0 494.443 46.387 Q 498.528 36.814 498.528 36.72 A 3.583 3.583 0 0 0 498.196 35.449 A 3.906 3.906 0 0 0 497.34 34.29 Q 496.935 33.906 496.515 33.665 A 2.869 2.869 0 0 0 495.072 33.264 A 2.143 2.143 0 0 0 494.591 33.316 A 1.429 1.429 0 0 0 493.884 33.696 A 2.878 2.878 0 0 0 493.526 34.09 Q 492.872 34.929 491.839 36.993 A 64.626 64.626 0 0 0 491.184 38.34 Q 489.348 42.228 486.648 49.356 A 327.596 327.596 0 0 0 485.463 52.484 Q 483.657 57.326 482.706 60.426 Q 481.537 64.239 481.564 65.228 A 1.17 1.17 0 0 0 481.572 65.34 A 1.225 1.225 0 0 0 481.65 65.606 Q 481.875 66.15 482.652 66.798 Q 483.624 67.608 484.812 68.202 Z M 576.288 17.28 L 568.728 27.432 Q 564.3 33.372 560.736 38.394 A 327.087 327.087 0 0 0 557.804 42.592 Q 556.038 45.165 554.58 47.412 Q 553.37 49.328 551.878 51.715 A 1601.107 1601.107 0 0 0 551.664 52.056 Q 550.044 54.648 548.802 57.402 A 13.848 13.848 0 0 0 547.659 61.389 A 12.68 12.68 0 0 0 547.56 62.964 Q 547.56 64.26 548.316 65.286 A 2.253 2.253 0 0 0 549.327 66.04 Q 549.714 66.193 550.2 66.26 A 5.982 5.982 0 0 0 551.016 66.312 A 8.795 8.795 0 0 0 553.387 65.949 Q 555.595 65.326 558.42 63.64 A 41.581 41.581 0 0 0 560.088 62.586 Q 565.342 59.101 570.502 53.11 A 75.048 75.048 0 0 0 571.212 52.272 Q 571.752 51.624 572.4 51.084 Q 573.048 50.544 573.48 50.544 A 0.637 0.637 0 0 1 573.713 50.584 Q 573.991 50.692 574.017 51.102 A 1.395 1.395 0 0 1 574.02 51.192 A 0.563 0.563 0 0 1 573.983 51.373 Q 573.881 51.663 573.502 52.188 A 11.458 11.458 0 0 1 573.318 52.434 Q 572.781 53.137 572.402 53.619 A 47.381 47.381 0 0 1 572.184 53.892 L 569.592 56.808 A 80.239 80.239 0 0 1 567.389 59.131 Q 566.209 60.329 564.853 61.621 A 134.763 134.763 0 0 1 564.462 61.992 A 35.502 35.502 0 0 1 559.042 66.229 A 32.471 32.471 0 0 1 558.198 66.744 Q 554.904 68.688 551.556 68.688 Q 548.424 68.688 545.724 67.122 A 5.191 5.191 0 0 1 543.144 63.34 A 8.377 8.377 0 0 1 543.024 61.884 A 17.977 17.977 0 0 1 543.533 57.804 Q 544.381 54.176 546.642 49.788 A 209.823 209.823 0 0 1 551.566 40.803 A 249.705 249.705 0 0 1 554.904 35.208 Q 567.143 15.333 572.492 14.709 A 2.93 2.93 0 0 1 572.832 14.688 A 3.213 3.213 0 0 1 574.03 14.931 Q 574.454 15.1 574.886 15.388 A 5.95 5.95 0 0 1 575.046 15.498 A 4.215 4.215 0 0 1 575.629 15.994 Q 576.212 16.597 576.288 17.28 Z M 312.228 69.876 Q 308.772 69.876 305.964 67.662 Q 303.156 65.448 303.156 61.776 Q 303.156 54.108 312.552 44.28 Q 320.541 36.023 327.112 34.628 A 12.563 12.563 0 0 1 329.724 34.344 A 7.465 7.465 0 0 1 331.525 34.55 A 5.369 5.369 0 0 1 333.774 35.694 A 4.713 4.713 0 0 1 334.817 36.939 A 4.09 4.09 0 0 1 335.34 38.988 A 8.77 8.77 0 0 1 333.829 43.75 Q 331.934 46.716 327.66 49.629 A 43.528 43.528 0 0 1 325.728 50.868 Q 317.196 56.052 311.364 56.052 Q 310.561 56.052 309.944 55.866 A 3.489 3.489 0 0 1 309.852 55.836 Q 308.232 58.752 308.232 61.992 A 8.613 8.613 0 0 0 308.483 64.172 Q 309.213 66.952 312.061 67.483 A 7.995 7.995 0 0 0 313.524 67.608 A 11.034 11.034 0 0 0 317.155 66.919 Q 320.354 65.798 324.342 62.85 A 59.622 59.622 0 0 0 327.456 60.372 Q 334.044 55.08 338.688 49.14 Q 339.377 48.223 339.957 47.955 A 1.095 1.095 0 0 1 340.416 47.844 A 0.933 0.933 0 0 1 340.673 47.877 Q 340.96 47.959 341.037 48.252 A 0.955 0.955 0 0 1 341.064 48.492 Q 341.064 49.14 340.2 50.328 Q 337.176 54.324 333.72 57.672 Q 330.264 61.02 326.268 63.828 A 49.817 49.817 0 0 1 321.914 66.684 Q 317.334 69.329 313.694 69.783 A 11.858 11.858 0 0 1 312.228 69.876 Z M 460.836 69.876 Q 457.38 69.876 454.572 67.662 Q 451.764 65.448 451.764 61.776 Q 451.764 54.108 461.16 44.28 Q 469.149 36.023 475.72 34.628 A 12.563 12.563 0 0 1 478.332 34.344 A 7.465 7.465 0 0 1 480.133 34.55 A 5.369 5.369 0 0 1 482.382 35.694 A 4.713 4.713 0 0 1 483.425 36.939 A 4.09 4.09 0 0 1 483.948 38.988 A 8.77 8.77 0 0 1 482.437 43.75 Q 480.542 46.716 476.268 49.629 A 43.528 43.528 0 0 1 474.336 50.868 Q 465.804 56.052 459.972 56.052 Q 459.169 56.052 458.552 55.866 A 3.489 3.489 0 0 1 458.46 55.836 Q 456.84 58.752 456.84 61.992 A 8.613 8.613 0 0 0 457.091 64.172 Q 457.821 66.952 460.669 67.483 A 7.995 7.995 0 0 0 462.132 67.608 A 11.034 11.034 0 0 0 465.763 66.919 Q 468.962 65.798 472.95 62.85 A 59.622 59.622 0 0 0 476.064 60.372 Q 482.652 55.08 487.296 49.14 Q 487.985 48.223 488.565 47.955 A 1.095 1.095 0 0 1 489.024 47.844 A 0.933 0.933 0 0 1 489.281 47.877 Q 489.568 47.959 489.645 48.252 A 0.955 0.955 0 0 1 489.672 48.492 Q 489.672 49.14 488.808 50.328 Q 485.784 54.324 482.328 57.672 Q 478.872 61.02 474.876 63.828 A 49.817 49.817 0 0 1 470.522 66.684 Q 465.942 69.329 462.302 69.783 A 11.858 11.858 0 0 1 460.836 69.876 Z M 521.1 69.876 Q 517.644 69.876 514.836 67.662 Q 512.028 65.448 512.028 61.776 Q 512.028 54.108 521.424 44.28 Q 529.413 36.023 535.984 34.628 A 12.563 12.563 0 0 1 538.596 34.344 A 7.465 7.465 0 0 1 540.397 34.55 A 5.369 5.369 0 0 1 542.646 35.694 A 4.713 4.713 0 0 1 543.689 36.939 A 4.09 4.09 0 0 1 544.212 38.988 A 8.77 8.77 0 0 1 542.701 43.75 Q 540.806 46.716 536.532 49.629 A 43.528 43.528 0 0 1 534.6 50.868 Q 526.068 56.052 520.236 56.052 Q 519.433 56.052 518.816 55.866 A 3.489 3.489 0 0 1 518.724 55.836 Q 517.104 58.752 517.104 61.992 A 8.613 8.613 0 0 0 517.355 64.172 Q 518.085 66.952 520.933 67.483 A 7.995 7.995 0 0 0 522.396 67.608 A 11.034 11.034 0 0 0 526.027 66.919 Q 529.226 65.798 533.214 62.85 A 59.622 59.622 0 0 0 536.328 60.372 Q 542.916 55.08 547.56 49.14 Q 548.249 48.223 548.829 47.955 A 1.095 1.095 0 0 1 549.288 47.844 A 0.933 0.933 0 0 1 549.545 47.877 Q 549.832 47.959 549.909 48.252 A 0.955 0.955 0 0 1 549.936 48.492 Q 549.936 49.14 549.072 50.328 Q 546.048 54.324 542.592 57.672 Q 539.136 61.02 535.14 63.828 A 49.817 49.817 0 0 1 530.786 66.684 Q 526.206 69.329 522.566 69.783 A 11.858 11.858 0 0 1 521.1 69.876 Z M 646.164 69.876 Q 642.708 69.876 639.9 67.662 Q 637.092 65.448 637.092 61.776 Q 637.092 54.108 646.488 44.28 Q 654.477 36.023 661.048 34.628 A 12.563 12.563 0 0 1 663.66 34.344 A 7.465 7.465 0 0 1 665.461 34.55 A 5.369 5.369 0 0 1 667.71 35.694 A 4.713 4.713 0 0 1 668.753 36.939 A 4.09 4.09 0 0 1 669.276 38.988 A 8.77 8.77 0 0 1 667.765 43.75 Q 665.87 46.716 661.596 49.629 A 43.528 43.528 0 0 1 659.664 50.868 Q 651.132 56.052 645.3 56.052 Q 644.497 56.052 643.88 55.866 A 3.489 3.489 0 0 1 643.788 55.836 Q 642.168 58.752 642.168 61.992 A 8.613 8.613 0 0 0 642.419 64.172 Q 643.149 66.952 645.997 67.483 A 7.995 7.995 0 0 0 647.46 67.608 A 11.034 11.034 0 0 0 651.091 66.919 Q 654.29 65.798 658.278 62.85 A 59.622 59.622 0 0 0 661.392 60.372 Q 667.98 55.08 672.624 49.14 Q 673.313 48.223 673.893 47.955 A 1.095 1.095 0 0 1 674.352 47.844 A 0.933 0.933 0 0 1 674.609 47.877 Q 674.896 47.959 674.973 48.252 A 0.955 0.955 0 0 1 675 48.492 Q 675 49.14 674.136 50.328 Q 671.112 54.324 667.656 57.672 Q 664.2 61.02 660.204 63.828 A 49.817 49.817 0 0 1 655.85 66.684 Q 651.27 69.329 647.63 69.783 A 11.858 11.858 0 0 1 646.164 69.876 Z M 593.676 88.884 Q 589.14 86.4 589.14 79.488 A 15.374 15.374 0 0 1 589.879 75.18 Q 592.144 67.598 601.344 54 Q 612.885 36.796 617.448 35.24 A 3.561 3.561 0 0 1 617.544 35.208 A 12.989 12.989 0 0 1 617.853 35.135 Q 618.006 35.101 618.142 35.075 A 6.857 6.857 0 0 1 618.3 35.046 Q 618.624 34.992 618.948 34.992 Q 620.784 34.992 620.784 38.988 A 3.788 3.788 0 0 1 621.359 38.527 Q 621.982 38.111 622.964 37.711 A 16.492 16.492 0 0 1 623.43 37.53 Q 625.32 36.828 627.318 36.396 Q 629.316 35.964 630.288 35.856 A 15.253 15.253 0 0 1 631.031 35.838 Q 632.816 35.838 634.349 36.274 A 9.648 9.648 0 0 1 637.686 37.962 Q 640.608 40.247 640.656 43.943 A 9.532 9.532 0 0 1 640.656 44.064 A 16.044 16.044 0 0 1 638.277 52.28 Q 636.807 54.78 634.429 57.233 A 41.886 41.886 0 0 1 630.18 61.02 Q 620.676 68.472 613.332 68.472 Q 608.64 68.472 606.767 67.969 A 5.75 5.75 0 0 1 606.636 67.932 A 7.647 7.647 0 0 1 604.595 66.963 Q 602.99 65.911 601.344 63.936 Q 600.156 64.908 598.752 67.23 A 45.379 45.379 0 0 0 596.898 70.627 A 53.341 53.341 0 0 0 596.106 72.306 A 44.708 44.708 0 0 0 594.277 77.042 A 40.409 40.409 0 0 0 594.054 77.76 A 24.674 24.674 0 0 0 593.593 79.515 Q 593.244 81.092 593.244 82.296 Q 593.244 83.917 593.791 85.074 A 4.613 4.613 0 0 0 593.946 85.374 Q 594.648 86.616 595.296 87.696 Q 595.296 87.804 595.35 87.858 L 595.404 87.912 A 0.932 0.932 0 0 1 595.148 88.551 Q 595.014 88.701 594.81 88.83 A 1.462 1.462 0 0 1 594.558 88.96 Q 594.155 89.118 593.778 88.939 A 1.178 1.178 0 0 1 593.676 88.884 Z M 88.992 68.688 L 87.264 68.688 A 4.495 4.495 0 0 1 83.688 67.045 A 6.483 6.483 0 0 1 83.052 66.15 A 11.975 11.975 0 0 1 82.073 64.115 Q 81.54 62.647 81.54 61.236 A 12.96 12.96 0 0 1 82.284 57.181 Q 83.56 53.348 87.027 48.306 A 86.489 86.489 0 0 1 90.936 43.092 A 78.225 78.225 0 0 1 94.851 38.578 Q 101.089 31.962 105.445 31.377 A 6.215 6.215 0 0 1 106.272 31.32 A 7.474 7.474 0 0 1 108.485 31.62 Q 110.918 32.374 111.555 35.03 A 9.128 9.128 0 0 1 111.78 37.152 A 10.391 10.391 0 0 1 111.717 38.275 A 12.675 12.675 0 0 1 111.618 38.988 Q 111.456 39.96 111.24 41.04 A 0.54 0.54 0 0 0 111.452 41.218 Q 111.654 41.321 112.002 41.352 A 3.655 3.655 0 0 0 112.32 41.364 A 10.387 10.387 0 0 0 114.659 41.076 Q 116.735 40.595 119.232 39.312 Q 119.13 41.045 111.621 44.221 A 92.522 92.522 0 0 1 110.7 44.604 Q 111.888 48.168 103.572 58.212 A 61.007 61.007 0 0 1 99.958 62.294 Q 93.717 68.688 88.992 68.688 Z M 575.964 68.688 L 574.236 68.688 A 4.495 4.495 0 0 1 570.66 67.045 A 6.483 6.483 0 0 1 570.024 66.15 A 11.975 11.975 0 0 1 569.045 64.115 Q 568.512 62.647 568.512 61.236 A 12.96 12.96 0 0 1 569.256 57.181 Q 570.532 53.348 573.999 48.306 A 86.489 86.489 0 0 1 577.908 43.092 A 78.225 78.225 0 0 1 581.823 38.578 Q 588.061 31.962 592.417 31.377 A 6.215 6.215 0 0 1 593.244 31.32 A 7.474 7.474 0 0 1 595.457 31.62 Q 597.89 32.374 598.527 35.03 A 9.128 9.128 0 0 1 598.752 37.152 A 10.391 10.391 0 0 1 598.689 38.275 A 12.675 12.675 0 0 1 598.59 38.988 Q 598.428 39.96 598.212 41.04 A 0.54 0.54 0 0 0 598.424 41.218 Q 598.626 41.321 598.974 41.352 A 3.655 3.655 0 0 0 599.292 41.364 A 10.387 10.387 0 0 0 601.631 41.076 Q 603.707 40.595 606.204 39.312 Q 606.102 41.045 598.593 44.221 A 92.522 92.522 0 0 1 597.672 44.604 Q 598.86 48.168 590.544 58.212 A 61.007 61.007 0 0 1 586.93 62.294 Q 580.689 68.688 575.964 68.688 Z M 243 52.92 L 254.448 37.152 A 2.838 2.838 0 0 0 252.412 35.708 A 4.224 4.224 0 0 0 251.64 35.64 A 11.76 11.76 0 0 0 247.444 36.525 Q 241.82 38.694 233.861 46.186 A 105.845 105.845 0 0 0 233.82 46.224 Q 223.234 56.026 223.234 62.714 A 7.958 7.958 0 0 0 223.344 64.044 A 5.239 5.239 0 0 0 223.667 65.086 Q 224.336 66.606 225.874 66.636 A 3.195 3.195 0 0 0 225.936 66.636 A 8.52 8.52 0 0 0 229.701 65.611 Q 234.623 63.151 241.495 54.792 A 113.907 113.907 0 0 0 243 52.92 Z M 611.928 65.448 A 14.798 14.798 0 0 0 616.722 64.583 Q 620.669 63.23 625.245 59.766 A 52.125 52.125 0 0 0 625.86 59.292 Q 632.474 54.063 634.378 48.012 A 16.65 16.65 0 0 0 635.148 42.984 A 4.687 4.687 0 0 0 634.831 41.189 Q 633.995 39.162 630.957 38.915 A 10.937 10.937 0 0 0 630.072 38.88 Q 625.428 38.88 621.432 40.932 A 3.622 3.622 0 0 0 620.852 41.242 Q 619.959 41.809 618.514 43.172 A 45.342 45.342 0 0 0 617.922 43.74 Q 615.492 46.116 611.496 50.22 A 136.396 136.396 0 0 0 608.597 53.317 Q 603.149 59.338 602.97 61.424 A 1.605 1.605 0 0 0 602.964 61.56 A 2.184 2.184 0 0 0 603.622 63.092 Q 604.301 63.809 605.681 64.379 A 13.01 13.01 0 0 0 606.528 64.692 A 15.606 15.606 0 0 0 609.321 65.293 A 20.956 20.956 0 0 0 611.928 65.448 Z M 100.878 57.163 A 69.562 69.562 0 0 0 101.088 56.916 A 77.888 77.888 0 0 0 103.781 53.558 Q 108.108 47.812 108.108 44.928 Q 106.797 44.191 104.988 41.712 A 38.838 38.838 0 0 1 103.788 39.96 A 4.74 4.74 0 0 0 101.68 40.549 Q 98.886 41.964 94.847 46.783 A 75.018 75.018 0 0 0 93.204 48.816 A 62.474 62.474 0 0 0 90.475 52.536 Q 86.61 58.273 86.61 61.811 A 6.232 6.232 0 0 0 86.616 62.1 Q 86.721 65.346 89.058 65.445 A 3.529 3.529 0 0 0 89.208 65.448 Q 93.785 65.448 100.878 57.163 Z M 587.85 57.163 A 69.562 69.562 0 0 0 588.06 56.916 A 77.888 77.888 0 0 0 590.753 53.558 Q 595.08 47.812 595.08 44.928 Q 593.769 44.191 591.96 41.712 A 38.838 38.838 0 0 1 590.76 39.96 A 4.74 4.74 0 0 0 588.652 40.549 Q 585.858 41.964 581.819 46.783 A 75.018 75.018 0 0 0 580.176 48.816 A 62.474 62.474 0 0 0 577.447 52.536 Q 573.582 58.273 573.582 61.811 A 6.232 6.232 0 0 0 573.588 62.1 Q 573.693 65.346 576.03 65.445 A 3.529 3.529 0 0 0 576.18 65.448 Q 580.757 65.448 587.85 57.163 Z M 17.712 70.416 Q 14.796 67.176 13.176 63.72 Q 11.179 59.181 10.021 52.885 A 76.826 76.826 0 0 1 9.612 50.436 A 54.908 54.908 0 0 0 9.34 48.787 Q 8.724 45.412 8.055 44.832 A 0.427 0.427 0 0 0 7.776 44.712 Q 7.096 44.712 6.047 45.517 A 10.636 10.636 0 0 0 5.454 46.008 A 3.219 3.219 0 0 0 4.685 47.103 Q 4.186 48.202 4.049 50.024 A 19.871 19.871 0 0 0 3.996 51.516 Q 3.996 59.724 9.828 65.772 Q 12.744 68.796 17.712 70.416 Z M 362.664 71.172 A 21.827 21.827 0 0 0 365.757 69.458 Q 368.858 67.428 372.638 63.854 A 88.652 88.652 0 0 0 373.896 62.64 A 59.406 59.406 0 0 1 372.15 59.559 Q 370.461 56.343 369.792 53.892 A 18.22 18.22 0 0 1 369.453 52.359 Q 369.147 50.668 368.939 48.223 A 85.238 85.238 0 0 1 368.82 46.656 Q 361.368 57.348 361.368 65.34 A 14.583 14.583 0 0 0 361.651 68.278 A 11.014 11.014 0 0 0 362.664 71.172 Z M 312.876 53.676 A 11.11 11.11 0 0 0 315.684 53.276 Q 319.039 52.394 323.568 49.572 A 44.636 44.636 0 0 0 327.299 46.644 A 49.743 49.743 0 0 0 327.834 46.17 Q 329.94 44.28 331.29 42.336 A 10.42 10.42 0 0 0 331.988 41.192 Q 332.294 40.601 332.456 40.056 A 4.114 4.114 0 0 0 332.64 38.88 Q 332.64 37.541 330.576 37.479 A 6.835 6.835 0 0 0 330.372 37.476 A 6.287 6.287 0 0 0 328.345 37.861 Q 325.494 38.843 321.306 42.332 A 36.717 36.717 0 0 0 321.3 42.336 Q 318.492 44.712 315.9 47.52 Q 313.308 50.328 311.472 53.46 A 4.245 4.245 0 0 0 312.505 53.663 A 5.025 5.025 0 0 0 312.876 53.676 Z M 461.484 53.676 A 11.11 11.11 0 0 0 464.292 53.276 Q 467.647 52.394 472.176 49.572 A 44.636 44.636 0 0 0 475.907 46.644 A 49.743 49.743 0 0 0 476.442 46.17 Q 478.548 44.28 479.898 42.336 A 10.42 10.42 0 0 0 480.596 41.192 Q 480.902 40.601 481.064 40.056 A 4.114 4.114 0 0 0 481.248 38.88 Q 481.248 37.541 479.184 37.479 A 6.835 6.835 0 0 0 478.98 37.476 A 6.287 6.287 0 0 0 476.953 37.861 Q 474.102 38.843 469.914 42.332 A 36.717 36.717 0 0 0 469.908 42.336 Q 467.1 44.712 464.508 47.52 Q 461.916 50.328 460.08 53.46 A 4.245 4.245 0 0 0 461.113 53.663 A 5.025 5.025 0 0 0 461.484 53.676 Z M 521.748 53.676 A 11.11 11.11 0 0 0 524.556 53.276 Q 527.911 52.394 532.44 49.572 A 44.636 44.636 0 0 0 536.171 46.644 A 49.743 49.743 0 0 0 536.706 46.17 Q 538.812 44.28 540.162 42.336 A 10.42 10.42 0 0 0 540.86 41.192 Q 541.166 40.601 541.328 40.056 A 4.114 4.114 0 0 0 541.512 38.88 Q 541.512 37.541 539.448 37.479 A 6.835 6.835 0 0 0 539.244 37.476 A 6.287 6.287 0 0 0 537.217 37.861 Q 534.366 38.843 530.178 42.332 A 36.717 36.717 0 0 0 530.172 42.336 Q 527.364 44.712 524.772 47.52 Q 522.18 50.328 520.344 53.46 A 4.245 4.245 0 0 0 521.377 53.663 A 5.025 5.025 0 0 0 521.748 53.676 Z M 646.812 53.676 A 11.11 11.11 0 0 0 649.62 53.276 Q 652.975 52.394 657.504 49.572 A 44.636 44.636 0 0 0 661.235 46.644 A 49.743 49.743 0 0 0 661.77 46.17 Q 663.876 44.28 665.226 42.336 A 10.42 10.42 0 0 0 665.924 41.192 Q 666.23 40.601 666.392 40.056 A 4.114 4.114 0 0 0 666.576 38.88 Q 666.576 37.541 664.512 37.479 A 6.835 6.835 0 0 0 664.308 37.476 A 6.287 6.287 0 0 0 662.281 37.861 Q 659.43 38.843 655.242 42.332 A 36.717 36.717 0 0 0 655.236 42.336 Q 652.428 44.712 649.836 47.52 Q 647.244 50.328 645.408 53.46 A 4.245 4.245 0 0 0 646.441 53.663 A 5.025 5.025 0 0 0 646.812 53.676 Z" vector-effect="non-scaling-stroke"/></g></svg>