<svg width="779.87" height="94.285" viewBox="0 0 779.87 94.285" xmlns="http://www.w3.org/2000/svg"><g id="svgGroup" stroke-linecap="round" fill-rule="evenodd" font-size="9pt" stroke="#3a5208" stroke-width="0.55mm" fill="#7a8f89" style="stroke:#3a5208;stroke-width:0.55mm;fill:#7a8f89"><path d="M 549.613 51.192 L 581.797 26.676 Q 589.897 20.52 596.593 15.552 Q 603.289 10.584 609.391 7.128 A 60.372 60.372 0 0 1 618.992 2.717 A 53.969 53.969 0 0 1 621.703 1.836 A 45.048 45.048 0 0 1 631.16 0.145 A 53.813 53.813 0 0 1 635.149 0 A 21.501 21.501 0 0 1 639.891 0.506 A 18.432 18.432 0 0 1 642.493 1.296 Q 644.219 1.932 644.493 3.636 A 4.298 4.298 0 0 1 644.545 4.32 Q 644.545 5.508 644.093 5.928 A 0.887 0.887 0 0 1 643.465 6.156 A 1.016 1.016 0 0 1 642.978 6.024 Q 642.816 5.937 642.654 5.79 A 2.747 2.747 0 0 1 642.385 5.508 A 2.419 2.419 0 0 0 641.567 4.939 Q 640.746 4.568 639.387 4.467 A 14.858 14.858 0 0 0 638.281 4.428 A 18.285 18.285 0 0 0 637.096 4.47 Q 635.77 4.557 634 4.822 A 59.779 59.779 0 0 0 633.745 4.86 Q 631.815 5.157 629.323 5.658 A 168.471 168.471 0 0 0 626.941 6.156 A 64.58 64.58 0 0 0 619.794 8.248 A 83.631 83.631 0 0 0 613.927 10.584 A 108.328 108.328 0 0 0 605.99 14.499 A 139.512 139.512 0 0 0 599.509 18.252 Q 592.233 22.8 580.905 31.21 A 691.517 691.517 0 0 0 573.589 36.72 Q 565.273 43.092 559.495 47.25 Q 555.072 50.434 552.199 52.383 A 121.319 121.319 0 0 1 550.585 53.46 A 87.491 87.491 0 0 0 553.956 59.797 A 106.843 106.843 0 0 0 556.363 63.72 Q 559.765 69.012 563.761 73.926 Q 567.757 78.84 572.185 82.674 A 43.159 43.159 0 0 0 576.313 85.853 Q 578.638 87.419 580.933 88.452 Q 584.323 90.017 587.223 90.322 A 13.157 13.157 0 0 0 588.601 90.396 A 9.862 9.862 0 0 0 590.494 90.231 Q 593.785 89.585 593.785 86.4 L 593.785 85.86 A 1.613 1.613 0 0 0 593.77 85.632 Q 593.745 85.455 593.677 85.32 Q 593.677 85.104 593.623 84.942 Q 593.569 84.78 593.569 84.672 A 3.648 3.648 0 0 1 593.717 83.616 A 3.111 3.111 0 0 1 594.109 82.782 A 2.733 2.733 0 0 1 594.403 82.41 Q 594.576 82.229 594.759 82.123 A 1.058 1.058 0 0 1 595.297 81.972 A 1.176 1.176 0 0 1 596.242 82.478 Q 596.869 83.274 597.133 85.32 A 0.952 0.952 0 0 1 597.211 85.546 Q 597.234 85.652 597.239 85.775 A 1.818 1.818 0 0 1 597.241 85.86 L 597.241 86.4 A 6.012 6.012 0 0 1 596.628 89.127 A 6.083 6.083 0 0 1 595.405 90.774 A 10.588 10.588 0 0 1 592.422 92.791 A 13.427 13.427 0 0 1 590.761 93.42 Q 587.953 94.284 584.821 94.284 Q 580.609 94.284 577.369 92.772 Q 572.725 90.504 568.189 86.454 A 76.548 76.548 0 0 1 560.582 78.581 A 85.575 85.575 0 0 1 559.549 77.328 Q 555.445 72.252 552.205 66.636 A 96.514 96.514 0 0 1 548.577 59.743 A 79.875 79.875 0 0 1 546.805 55.728 Q 540.865 59.184 536.977 59.508 Q 534.662 62.485 531.397 66.095 A 187.719 187.719 0 0 1 529.309 68.364 A 104.338 104.338 0 0 1 520.742 76.517 A 117.055 117.055 0 0 1 518.995 77.976 Q 513.325 82.62 506.899 85.59 A 31.719 31.719 0 0 1 497.578 88.325 A 29.13 29.13 0 0 1 493.885 88.56 Q 486.998 88.56 482.457 85.708 A 15.403 15.403 0 0 1 480.547 84.294 A 13.157 13.157 0 0 1 476.749 78.482 Q 476 76.292 475.754 73.599 A 30.259 30.259 0 0 1 475.633 70.848 A 21.71 21.71 0 0 1 477.369 62.437 A 26.029 26.029 0 0 1 478.117 60.804 Q 480.601 55.836 484.813 51.84 A 30.786 30.786 0 0 1 491.482 46.98 A 27.917 27.917 0 0 1 493.993 45.792 Q 500.149 43.092 506.845 43.092 Q 510.323 43.092 512.52 44.783 A 7.273 7.273 0 0 1 512.893 45.09 Q 515.161 47.088 515.161 50.22 A 7.211 7.211 0 0 1 515.141 50.788 Q 515.095 51.37 514.945 51.72 A 1.054 1.054 0 0 1 514.729 52.056 Q 514.621 52.164 514.405 52.164 Q 514.123 52.164 513.677 51.509 A 6.405 6.405 0 0 1 513.541 51.3 A 21.764 21.764 0 0 0 512.596 49.639 Q 511.341 47.657 510.085 46.872 A 6.169 6.169 0 0 0 508.521 46.193 Q 507.134 45.792 505.225 45.792 A 19.733 19.733 0 0 0 496.412 47.902 A 23.049 23.049 0 0 0 495.991 48.114 Q 491.509 50.436 487.891 54.324 Q 484.273 58.212 482.113 63.018 A 24.339 24.339 0 0 0 480.164 69.652 A 21.941 21.941 0 0 0 479.953 72.684 A 15 15 0 0 0 480.883 78.164 Q 483.37 84.538 492.513 85.783 A 29.402 29.402 0 0 0 493.129 85.86 A 10.022 10.022 0 0 0 493.998 85.897 Q 498.334 85.897 504.819 82.414 A 56.922 56.922 0 0 0 506.197 81.648 Q 514.661 76.812 523.918 67.111 A 156.352 156.352 0 0 0 532.009 57.888 Q 529.552 55.645 529.526 51.5 A 14.177 14.177 0 0 1 529.525 51.408 Q 529.525 46.764 532.657 42.984 Q 536.113 38.88 541.837 38.88 A 14.36 14.36 0 0 1 543.778 39.007 A 12.067 12.067 0 0 1 544.861 39.204 Q 547.777 34.236 550.477 29.16 Q 553.177 24.084 555.661 18.9 A 285.774 285.774 0 0 0 556.775 16.571 Q 560.413 8.87 560.413 7.452 A 0.649 0.649 0 0 0 560.41 7.38 Q 560.402 7.308 560.375 7.272 A 0.082 0.082 0 0 0 560.305 7.236 Q 559.989 7.025 557.815 8.001 A 36.321 36.321 0 0 0 557.713 8.046 A 182.549 182.549 0 0 0 555.906 8.876 Q 555.109 9.248 554.238 9.661 A 327.407 327.407 0 0 0 552.421 10.53 A 144.202 144.202 0 0 0 548.81 12.332 A 118.529 118.529 0 0 0 546.805 13.392 A 128.763 128.763 0 0 0 545.628 14.037 Q 544.149 14.859 543.406 15.336 A 12.055 12.055 0 0 0 543.241 15.444 A 40.444 40.444 0 0 0 539.11 18.527 A 52.428 52.428 0 0 0 535.897 21.492 A 38.435 38.435 0 0 0 534.046 23.468 Q 531.416 26.499 531.171 28.447 A 3.115 3.115 0 0 0 531.145 28.836 A 2.201 2.201 0 0 0 531.914 30.533 A 3.201 3.201 0 0 0 532.225 30.78 Q 533.836 31.931 536.536 32.264 A 19.514 19.514 0 0 0 538.921 32.4 Q 539.38 32.584 539.449 32.767 A 0.183 0.183 0 0 1 539.461 32.832 Q 539.461 33.317 536.673 33.802 A 39.342 39.342 0 0 1 536.005 33.912 Q 532.981 34.385 531.115 34.278 A 9.526 9.526 0 0 1 530.605 34.236 A 4.784 4.784 0 0 1 529.424 33.797 Q 527.905 32.967 527.905 31.104 A 7.972 7.972 0 0 1 528.442 28.36 Q 529.298 26.031 531.521 23.257 A 35.742 35.742 0 0 1 532.549 22.032 Q 537.193 16.74 542.701 13.716 Q 555.37 6.914 560.742 5.467 A 9.545 9.545 0 0 1 563.113 5.076 A 4.499 4.499 0 0 1 563.967 5.153 Q 564.512 5.258 564.949 5.508 A 0.943 0.943 0 0 1 565.25 5.908 Q 565.32 6.074 565.353 6.286 A 2.704 2.704 0 0 1 565.381 6.696 A 12.953 12.953 0 0 1 564.647 10.339 Q 561.945 18.867 549.299 40.831 A 724.799 724.799 0 0 1 547.237 44.388 A 25.015 25.015 0 0 0 547.518 45.413 Q 547.701 46.031 547.934 46.719 A 45.733 45.733 0 0 0 548.155 47.358 A 83.438 83.438 0 0 0 548.727 48.916 Q 549.027 49.712 549.376 50.594 A 146.589 146.589 0 0 0 549.613 51.192 Z M 9.677 86.639 A 20.275 20.275 0 0 0 16.849 87.804 A 19.167 19.167 0 0 0 20.307 87.483 Q 30.593 85.599 42.769 72.684 Q 53.461 61.128 60.913 47.412 Q 62.749 47.736 64.585 47.736 Q 67.825 47.736 71.011 46.602 Q 74.197 45.468 76.249 43.416 A 8.54 8.54 0 0 0 76.505 43.149 A 6.447 6.447 0 0 0 78.301 38.664 A 5.088 5.088 0 0 0 77.232 35.493 A 6.989 6.989 0 0 0 75.817 34.128 Q 75.642 33.997 75.466 33.918 A 1.252 1.252 0 0 0 74.953 33.804 A 1.273 1.273 0 0 0 74.633 33.841 Q 74.242 33.943 74.132 34.326 A 1.244 1.244 0 0 0 74.089 34.668 A 0.268 0.268 0 0 0 74.09 34.676 Q 74.095 34.857 74.339 35.483 A 18.947 18.947 0 0 0 74.467 35.802 A 5.464 5.464 0 0 1 74.675 36.399 A 4.354 4.354 0 0 1 74.845 37.584 A 5.135 5.135 0 0 1 74.286 39.937 A 6.315 6.315 0 0 1 73.171 41.472 Q 71.497 43.2 68.959 44.172 Q 66.421 45.144 63.721 45.144 L 62.857 45.144 Q 62.425 45.144 61.993 45.036 A 208.433 208.433 0 0 1 66.517 37.637 Q 75.468 23.705 81.993 19.515 A 9.742 9.742 0 0 1 87.157 17.712 Q 88.453 17.712 89.533 18.414 A 46.255 46.255 0 0 1 89.773 18.571 Q 90.549 19.082 90.514 19.114 A 0.012 0.012 0 0 1 90.505 19.116 A 0.77 0.77 0 0 0 90.881 19.014 Q 91.19 18.844 91.486 18.39 A 4.672 4.672 0 0 0 91.747 17.928 Q 92.341 16.74 92.341 15.444 A 9.852 9.852 0 0 0 92.316 14.728 A 7.755 7.755 0 0 0 89.425 9.126 A 16.347 16.347 0 0 0 85.916 6.91 A 21.462 21.462 0 0 0 82.135 5.562 Q 77.761 4.428 73.117 4.428 A 30.745 30.745 0 0 0 63.382 6.068 A 41.991 41.991 0 0 0 55.621 9.612 Q 49.033 13.5 45.253 19.17 Q 41.473 24.84 41.473 31.86 A 13.993 13.993 0 0 0 42.878 38.248 Q 45.559 43.562 53.353 45.9 Q 36.831 74.146 24.607 81.815 A 16.218 16.218 0 0 1 16.093 84.672 A 12.493 12.493 0 0 1 15.732 84.667 Q 13.037 84.589 10.928 83.34 A 10.434 10.434 0 0 1 7.831 80.46 A 16.406 16.406 0 0 1 5.321 75.304 A 20.961 20.961 0 0 1 4.537 70.2 Q 4.105 56.592 11.989 45.252 A 52.528 52.528 0 0 1 12.709 44.283 Q 20.017 34.668 27.325 34.668 A 8.866 8.866 0 0 1 28.54 34.749 A 6.226 6.226 0 0 1 32.455 36.774 Q 33.733 38.197 34.147 40.434 A 12.837 12.837 0 0 1 34.345 42.768 A 20.989 20.989 0 0 1 34.345 42.908 Q 34.296 50.291 29.053 57.78 Q 23.437 65.88 17.065 65.88 A 7.086 7.086 0 0 1 15.719 65.758 A 4.965 4.965 0 0 1 13.231 64.53 A 4.357 4.357 0 0 1 11.991 62.529 A 5.7 5.7 0 0 1 11.773 60.912 A 7.833 7.833 0 0 1 12.529 57.564 A 56.274 56.274 0 0 0 12.555 57.504 Q 13.307 55.745 13.461 55.047 A 1.415 1.415 0 0 0 13.501 54.756 Q 13.501 54.001 12.914 53.832 A 1.399 1.399 0 0 0 12.529 53.784 Q 11.233 53.784 10.045 56.916 Q 9.181 59.508 9.181 61.668 A 11.163 11.163 0 0 0 9.221 62.616 A 8.674 8.674 0 0 0 11.071 67.392 A 5.67 5.67 0 0 0 12.314 68.55 Q 13.338 69.25 14.718 69.548 A 10.623 10.623 0 0 0 16.957 69.768 Q 22.087 69.768 27.098 64.83 A 35.308 35.308 0 0 0 30.565 60.804 A 44.711 44.711 0 0 0 31.277 59.828 Q 33.612 56.533 35.002 53.269 A 24.173 24.173 0 0 0 37.045 43.74 A 17.832 17.832 0 0 0 37.043 43.439 Q 36.957 38.368 33.967 35.64 Q 31.972 33.819 29.045 33.179 A 16.131 16.131 0 0 0 25.597 32.832 A 19.696 19.696 0 0 0 14.054 36.553 A 28.456 28.456 0 0 0 8.749 41.472 A 34.426 34.426 0 0 0 1.232 56.516 A 50.083 50.083 0 0 0 0.001 67.932 A 42.77 42.77 0 0 0 0.064 70.278 Q 0.779 83.284 9.677 86.639 Z M 225.289 52.704 L 206.281 48.384 A 24.299 24.299 0 0 1 201.926 47.001 Q 199.205 45.828 197.203 44.036 A 15.275 15.275 0 0 1 196.939 43.794 A 12.199 12.199 0 0 1 194.741 41.095 A 9.325 9.325 0 0 1 193.429 36.288 Q 193.429 31.531 197.795 26.774 A 33.242 33.242 0 0 1 201.529 23.328 A 36.977 36.977 0 0 1 207.836 19.21 A 44.766 44.766 0 0 1 211.141 17.658 Q 216.649 15.336 222.751 14.094 A 61.693 61.693 0 0 1 230.912 12.974 A 52.981 52.981 0 0 1 234.469 12.852 Q 241.498 12.852 246.73 14.773 A 24.735 24.735 0 0 1 248.131 15.336 Q 253.206 17.559 254.864 21.6 A 10.103 10.103 0 0 1 255.205 22.572 A 7.657 7.657 0 0 1 255.489 24.064 A 9.516 9.516 0 0 1 255.529 24.948 A 10.066 10.066 0 0 1 254.733 29.046 Q 253.239 32.437 248.941 34.128 A 28.728 28.728 0 0 1 246.391 35.034 Q 244.002 35.748 242.137 35.748 A 7.496 7.496 0 0 1 241.131 35.685 Q 240.602 35.613 240.169 35.46 A 3.282 3.282 0 0 1 239.437 35.1 A 0.729 0.729 0 0 1 239.222 34.581 A 0.956 0.956 0 0 1 239.221 34.56 A 0.457 0.457 0 0 1 239.464 34.184 Q 240.068 33.78 242.177 33.699 A 23.8 23.8 0 0 1 242.245 33.696 A 38.515 38.515 0 0 0 243.431 33.609 Q 243.96 33.562 244.42 33.502 A 16.714 16.714 0 0 0 245.269 33.372 Q 246.208 33.202 246.742 33.031 A 3.832 3.832 0 0 0 246.997 32.94 A 8.978 8.978 0 0 0 249.162 31.39 A 6.516 6.516 0 0 0 251.101 26.568 A 8.868 8.868 0 0 0 250.726 24.07 A 12.294 12.294 0 0 0 249.913 22.032 Q 246.565 15.876 233.173 15.876 A 50.476 50.476 0 0 0 225.062 16.554 A 57.607 57.607 0 0 0 223.129 16.902 Q 217.945 17.928 213.301 19.926 A 29.626 29.626 0 0 0 208.401 22.579 A 24.355 24.355 0 0 0 205.417 24.948 Q 200.798 29.212 199.978 32.745 A 6.584 6.584 0 0 0 199.801 34.236 A 6.208 6.208 0 0 0 201.191 38.128 Q 201.869 39.001 202.879 39.798 A 13.441 13.441 0 0 0 205.503 41.384 Q 208.124 42.615 211.972 43.368 A 44.193 44.193 0 0 0 212.221 43.416 L 224.965 45.792 A 49.855 49.855 0 0 1 230.066 47.031 Q 232.529 47.778 234.561 48.732 A 24.213 24.213 0 0 1 236.845 49.95 A 9.257 9.257 0 0 1 240.082 53.129 Q 241.381 55.315 241.381 58.32 Q 241.381 63.288 238.897 67.608 Q 236.413 71.928 232.255 75.33 A 38.676 38.676 0 0 1 224.111 80.416 A 43.687 43.687 0 0 1 222.805 81 A 59.752 59.752 0 0 1 208.849 85.129 Q 202.154 86.292 194.509 86.292 Q 192.457 86.292 190.405 86.184 Q 188.353 86.076 186.409 85.86 Q 187.563 86.52 189.189 87.179 A 38.899 38.899 0 0 0 190.243 87.588 A 42.369 42.369 0 0 0 192.658 88.4 Q 193.859 88.766 195.203 89.11 A 69.241 69.241 0 0 0 195.589 89.208 A 0.575 0.575 0 0 1 195.746 89.286 Q 195.896 89.395 195.912 89.594 A 0.603 0.603 0 0 1 195.913 89.64 Q 195.913 90.607 193.672 90.612 A 10.453 10.453 0 0 1 193.645 90.612 Q 189.217 90.612 182.629 85.32 Q 178.761 84.69 175.829 83.724 A 28.763 28.763 0 0 1 174.691 83.322 A 24.567 24.567 0 0 1 172.026 82.142 Q 170.452 81.324 169.237 80.352 A 20.131 20.131 0 0 1 166.156 77 A 27.545 27.545 0 0 1 163.945 73.44 A 21.563 21.563 0 0 1 162.395 69.722 A 15.699 15.699 0 0 1 161.677 65.124 A 11.141 11.141 0 0 1 162.147 61.844 A 9.789 9.789 0 0 1 163.081 59.724 Q 166.321 54 171.289 54 A 3.565 3.565 0 0 1 174.551 56.016 Q 175.379 57.486 175.68 60.028 A 20.986 20.986 0 0 1 175.717 60.372 Q 176.296 64.92 176.717 68.043 A 480.966 480.966 0 0 0 176.959 69.822 A 114.837 114.837 0 0 0 177.164 71.242 Q 177.516 73.568 177.769 74.412 Q 179.389 79.704 183.277 83.376 A 43.542 43.542 0 0 0 189.243 84.212 A 53.225 53.225 0 0 0 193.105 84.348 Q 204.769 84.348 215.461 79.92 A 44.879 44.879 0 0 0 222.69 75.977 A 50.914 50.914 0 0 0 224.317 74.844 A 35.314 35.314 0 0 0 228.914 70.897 A 29.335 29.335 0 0 0 231.445 67.932 Q 233.69 64.91 234.141 62.026 A 9.312 9.312 0 0 0 234.253 60.588 Q 234.253 55.997 226.919 53.261 A 32.256 32.256 0 0 0 225.289 52.704 Z M 80.029 62.316 L 73.549 69.12 L 72.253 70.416 Q 71.199 71.47 70.557 71.496 A 0.797 0.797 0 0 1 70.525 71.496 Q 69.985 71.496 69.985 70.74 A 0.809 0.809 0 0 1 70 70.594 Q 70.027 70.45 70.101 70.259 A 3.517 3.517 0 0 1 70.147 70.146 A 1.659 1.659 0 0 1 70.283 69.898 Q 70.445 69.65 70.733 69.348 A 7.012 7.012 0 0 1 70.849 69.228 Q 72.469 67.608 74.197 65.772 Q 75.925 63.936 77.761 61.56 Q 79.165 59.724 81.811 56.106 Q 84.393 52.576 88.158 47.245 A 1189.786 1189.786 0 0 0 88.345 46.98 A 3.808 3.808 0 0 1 91.105 45.392 A 5.257 5.257 0 0 1 91.693 45.36 A 3.284 3.284 0 0 1 92.534 45.458 Q 93.608 45.743 93.808 46.859 A 3.143 3.143 0 0 1 93.853 47.412 A 1.09 1.09 0 0 1 93.767 47.735 Q 93.165 49.329 88.345 57.456 Q 85.834 61.9 84.229 64.875 A 205.803 205.803 0 0 0 83.863 65.556 Q 82.189 68.688 81.757 70.2 A 126.144 126.144 0 0 1 84.012 67.808 Q 85.184 66.595 86.519 65.267 A 223.203 223.203 0 0 1 87.427 64.368 A 284.706 284.706 0 0 1 90.741 61.165 Q 92.496 59.494 94.472 57.66 A 478.448 478.448 0 0 1 95.041 57.132 Q 108.255 44.885 112.493 44.821 A 2.932 2.932 0 0 1 112.537 44.82 A 3.904 3.904 0 0 1 114.253 45.228 A 5.081 5.081 0 0 1 114.859 45.576 A 2.965 2.965 0 0 1 115.482 46.119 A 2.1 2.1 0 0 1 115.993 47.52 A 0.835 0.835 0 0 1 115.928 47.762 Q 115.533 48.803 112.778 53.658 A 443.248 443.248 0 0 1 111.781 55.404 A 379.029 379.029 0 0 0 110.372 57.986 Q 107.939 62.486 107.369 63.918 A 4.66 4.66 0 0 0 107.245 64.26 Q 119.233 54.216 119.233 54.108 A 94.792 94.792 0 0 1 123.401 51.036 Q 130.354 46.224 133.813 46.224 A 4.055 4.055 0 0 1 136.064 46.912 A 5.014 5.014 0 0 1 136.243 47.034 Q 137.377 47.844 137.377 48.924 Q 137.377 49.112 132.148 55.837 A 1555.038 1555.038 0 0 1 130.465 57.996 A 72.076 72.076 0 0 0 127.121 62.53 Q 123.108 68.481 122.473 72.684 Q 122.041 76.572 126.469 76.572 Q 128.587 76.572 132.032 74.447 A 36.801 36.801 0 0 0 134.029 73.116 A 46.725 46.725 0 0 0 138.325 69.632 Q 141.184 67.038 144.181 63.612 Q 144.829 62.856 145.585 62.154 Q 146.19 61.593 146.657 61.48 A 0.959 0.959 0 0 1 146.881 61.452 A 1.136 1.136 0 0 1 147.122 61.475 Q 147.469 61.551 147.521 61.873 A 0.758 0.758 0 0 1 147.529 61.992 A 1.478 1.478 0 0 1 147.404 62.563 Q 147.216 63.013 146.744 63.525 A 6.436 6.436 0 0 1 146.557 63.72 Q 143.749 67.068 139.915 70.632 A 60.579 60.579 0 0 1 135.619 74.283 A 48.158 48.158 0 0 1 132.301 76.626 A 20.638 20.638 0 0 1 130.023 77.908 Q 127.61 79.056 125.605 79.056 A 11.496 11.496 0 0 1 122.789 78.742 Q 119.129 77.814 118.428 74.146 A 10.095 10.095 0 0 1 118.261 72.252 A 10.808 10.808 0 0 1 118.471 70.209 Q 118.783 68.594 119.557 66.69 Q 120.853 63.504 122.149 60.912 A 72.456 72.456 0 0 1 126.059 54.225 A 58.722 58.722 0 0 1 128.953 50.22 A 41.063 41.063 0 0 0 125.205 52.361 A 54.533 54.533 0 0 0 121.771 54.756 A 81.839 81.839 0 0 0 117.494 58.223 A 104.717 104.717 0 0 0 114.049 61.344 A 66.348 66.348 0 0 0 107.574 68.608 Q 104.432 72.74 102.477 76.915 A 37.054 37.054 0 0 0 101.305 79.704 A 1.75 1.75 0 0 1 100.206 80.484 Q 99.874 80.568 99.469 80.568 Q 96.956 80.568 96.88 77.826 A 6.269 6.269 0 0 1 96.877 77.652 Q 98.065 71.604 101.737 64.044 Q 103.465 60.372 105.247 56.808 Q 107.029 53.244 108.757 49.572 A 103.55 103.55 0 0 0 101.827 54.702 A 115.337 115.337 0 0 0 100.765 55.566 A 76.982 76.982 0 0 0 94.176 61.702 A 86.35 86.35 0 0 0 92.989 62.964 A 132.26 132.26 0 0 0 89.471 66.908 Q 86.374 70.511 82.729 75.168 Q 78.569 80.395 77.886 80.459 A 0.176 0.176 0 0 1 77.869 80.46 A 2.798 2.798 0 0 1 75.702 79.461 A 4.191 4.191 0 0 1 75.385 79.056 Q 74.511 77.793 74.423 76.879 A 2.085 2.085 0 0 1 74.413 76.68 A 3.703 3.703 0 0 1 74.516 75.927 Q 74.911 74.122 76.832 69.598 A 144.239 144.239 0 0 1 76.897 69.444 Q 77.653 67.608 78.463 65.826 Q 79.273 64.044 80.029 62.316 Z M 626.293 62.316 L 619.813 69.12 L 618.517 70.416 Q 617.463 71.47 616.821 71.496 A 0.797 0.797 0 0 1 616.789 71.496 Q 616.249 71.496 616.249 70.74 A 0.809 0.809 0 0 1 616.264 70.594 Q 616.291 70.45 616.365 70.259 A 3.517 3.517 0 0 1 616.411 70.146 A 1.659 1.659 0 0 1 616.547 69.898 Q 616.709 69.65 616.997 69.348 A 7.012 7.012 0 0 1 617.113 69.228 Q 618.733 67.608 620.461 65.772 Q 622.189 63.936 624.025 61.56 Q 625.429 59.724 628.075 56.106 Q 630.657 52.576 634.422 47.245 A 1189.786 1189.786 0 0 0 634.609 46.98 A 3.808 3.808 0 0 1 637.369 45.392 A 5.257 5.257 0 0 1 637.957 45.36 A 3.284 3.284 0 0 1 638.798 45.458 Q 639.872 45.743 640.072 46.859 A 3.143 3.143 0 0 1 640.117 47.412 A 1.09 1.09 0 0 1 640.031 47.735 Q 639.429 49.329 634.609 57.456 Q 632.098 61.9 630.493 64.875 A 205.803 205.803 0 0 0 630.127 65.556 Q 628.453 68.688 628.021 70.2 A 126.144 126.144 0 0 1 630.276 67.808 Q 631.448 66.595 632.783 65.267 A 223.203 223.203 0 0 1 633.691 64.368 A 284.706 284.706 0 0 1 637.005 61.165 Q 638.76 59.494 640.736 57.66 A 478.448 478.448 0 0 1 641.305 57.132 Q 654.519 44.885 658.757 44.821 A 2.932 2.932 0 0 1 658.801 44.82 A 3.904 3.904 0 0 1 660.517 45.228 A 5.081 5.081 0 0 1 661.123 45.576 A 2.965 2.965 0 0 1 661.746 46.119 A 2.1 2.1 0 0 1 662.257 47.52 A 0.835 0.835 0 0 1 662.192 47.762 Q 661.797 48.803 659.042 53.658 A 443.248 443.248 0 0 1 658.045 55.404 A 379.029 379.029 0 0 0 656.636 57.986 Q 654.203 62.486 653.633 63.918 A 4.66 4.66 0 0 0 653.509 64.26 Q 665.497 54.216 665.497 54.108 A 94.792 94.792 0 0 1 669.665 51.036 Q 676.618 46.224 680.077 46.224 A 4.055 4.055 0 0 1 682.328 46.912 A 5.014 5.014 0 0 1 682.507 47.034 Q 683.641 47.844 683.641 48.924 Q 683.641 49.112 678.412 55.837 A 1555.038 1555.038 0 0 1 676.729 57.996 A 72.076 72.076 0 0 0 673.385 62.53 Q 669.372 68.481 668.737 72.684 Q 668.305 76.572 672.733 76.572 Q 674.851 76.572 678.296 74.447 A 36.801 36.801 0 0 0 680.293 73.116 A 46.725 46.725 0 0 0 684.589 69.632 Q 687.448 67.038 690.445 63.612 Q 691.093 62.856 691.849 62.154 Q 692.454 61.593 692.921 61.48 A 0.959 0.959 0 0 1 693.145 61.452 A 1.136 1.136 0 0 1 693.386 61.475 Q 693.733 61.551 693.785 61.873 A 0.758 0.758 0 0 1 693.793 61.992 A 1.478 1.478 0 0 1 693.668 62.563 Q 693.48 63.013 693.008 63.525 A 6.436 6.436 0 0 1 692.821 63.72 Q 690.013 67.068 686.179 70.632 A 60.579 60.579 0 0 1 681.883 74.283 A 48.158 48.158 0 0 1 678.565 76.626 A 20.638 20.638 0 0 1 676.287 77.908 Q 673.874 79.056 671.869 79.056 A 11.496 11.496 0 0 1 669.053 78.742 Q 665.393 77.814 664.692 74.146 A 10.095 10.095 0 0 1 664.525 72.252 A 10.808 10.808 0 0 1 664.735 70.209 Q 665.047 68.594 665.821 66.69 Q 667.117 63.504 668.413 60.912 A 72.456 72.456 0 0 1 672.323 54.225 A 58.722 58.722 0 0 1 675.217 50.22 A 41.063 41.063 0 0 0 671.469 52.361 A 54.533 54.533 0 0 0 668.035 54.756 A 81.839 81.839 0 0 0 663.758 58.223 A 104.717 104.717 0 0 0 660.313 61.344 A 66.348 66.348 0 0 0 653.838 68.608 Q 650.696 72.74 648.741 76.915 A 37.054 37.054 0 0 0 647.569 79.704 A 1.75 1.75 0 0 1 646.47 80.484 Q 646.138 80.568 645.733 80.568 Q 643.22 80.568 643.144 77.826 A 6.269 6.269 0 0 1 643.141 77.652 Q 644.329 71.604 648.001 64.044 Q 649.729 60.372 651.511 56.808 Q 653.293 53.244 655.021 49.572 A 103.55 103.55 0 0 0 648.091 54.702 A 115.337 115.337 0 0 0 647.029 55.566 A 76.982 76.982 0 0 0 640.44 61.702 A 86.35 86.35 0 0 0 639.253 62.964 A 132.26 132.26 0 0 0 635.735 66.908 Q 632.638 70.511 628.993 75.168 Q 624.833 80.395 624.15 80.459 A 0.176 0.176 0 0 1 624.133 80.46 A 2.798 2.798 0 0 1 621.966 79.461 A 4.191 4.191 0 0 1 621.649 79.056 Q 620.775 77.793 620.687 76.879 A 2.085 2.085 0 0 1 620.677 76.68 A 3.703 3.703 0 0 1 620.78 75.927 Q 621.175 74.122 623.096 69.598 A 144.239 144.239 0 0 1 623.161 69.444 Q 623.917 67.608 624.727 65.826 Q 625.537 64.044 626.293 62.316 Z M 434.917 61.344 L 441.829 50.112 Q 434.485 55.512 427.249 63.612 A 141.784 141.784 0 0 0 425.455 65.647 Q 424.242 67.048 422.875 68.688 A 190.906 190.906 0 0 0 420.491 71.612 Q 419.079 73.376 417.529 75.384 A 113.778 113.778 0 0 1 416.606 76.574 Q 413.547 80.46 412.885 80.46 A 2.853 2.853 0 0 1 410.686 79.464 A 4.097 4.097 0 0 1 410.401 79.11 A 7.047 7.047 0 0 1 409.899 78.313 Q 409.672 77.886 409.554 77.489 A 2.848 2.848 0 0 1 409.429 76.68 A 4.747 4.747 0 0 1 409.459 76.195 Q 409.556 75.272 409.969 73.494 Q 410.462 71.376 411.134 69.753 A 16.851 16.851 0 0 1 411.265 69.444 Q 412.021 67.608 412.831 65.826 Q 413.641 64.044 414.397 62.316 L 407.917 69.12 L 406.621 70.416 Q 405.567 71.47 404.925 71.496 A 0.797 0.797 0 0 1 404.893 71.496 Q 404.353 71.496 404.353 70.74 A 0.809 0.809 0 0 1 404.368 70.594 Q 404.395 70.45 404.469 70.259 A 3.517 3.517 0 0 1 404.515 70.146 A 1.659 1.659 0 0 1 404.651 69.898 Q 404.813 69.65 405.101 69.348 A 7.012 7.012 0 0 1 405.217 69.228 Q 406.837 67.608 408.565 65.772 Q 410.293 63.936 412.129 61.56 Q 413.099 60.375 415.037 57.953 A 376.67 376.67 0 0 0 415.045 57.942 Q 416.989 55.512 419.311 52.704 Q 421.633 49.896 423.685 47.52 A 3.824 3.824 0 0 1 424.105 47.022 Q 424.468 46.663 424.873 46.494 A 9.276 9.276 0 0 1 425.136 46.389 Q 425.496 46.252 425.673 46.229 A 0.503 0.503 0 0 1 425.737 46.224 A 5.499 5.499 0 0 1 426.802 46.318 Q 428.653 46.685 428.653 48.492 A 2.758 2.758 0 0 1 428.463 49.484 A 3.387 3.387 0 0 1 428.329 49.788 Q 421.115 59.728 418.185 66.157 A 27.774 27.774 0 0 0 416.665 70.2 Q 429.193 57.672 436.807 51.354 A 73.541 73.541 0 0 1 439.877 48.931 Q 444.295 45.648 446.796 45.132 A 4.304 4.304 0 0 1 447.661 45.036 Q 449.389 45.036 450.307 45.576 A 1.716 1.716 0 0 1 451.061 46.523 Q 451.172 46.836 451.208 47.227 A 4.356 4.356 0 0 1 451.225 47.628 A 4.454 4.454 0 0 1 451.215 47.945 Q 451.203 48.105 451.18 48.24 A 1.772 1.772 0 0 1 451.117 48.492 A 3.418 3.418 0 0 1 450.871 48.923 Q 450.192 49.982 447.832 53.059 A 352.342 352.342 0 0 1 446.689 54.54 Q 444.285 57.467 442.438 59.888 A 135.396 135.396 0 0 0 442.315 60.048 A 98.339 98.339 0 0 0 440.997 61.82 Q 440.488 62.52 440.048 63.157 A 48.804 48.804 0 0 0 439.237 64.368 A 36.061 36.061 0 0 0 437.722 66.942 Q 437.002 68.299 436.5 69.57 A 20.989 20.989 0 0 0 436.321 70.038 Q 435.672 71.806 435.457 73.212 A 8.661 8.661 0 0 0 435.349 74.52 Q 435.349 75.084 435.47 75.829 A 14.411 14.411 0 0 0 435.565 76.356 Q 435.755 77.305 436.611 77.42 A 1.872 1.872 0 0 0 436.861 77.436 A 4.548 4.548 0 0 0 438.329 77.149 Q 440.48 76.402 443.892 73.714 A 54.939 54.939 0 0 0 444.637 73.116 A 78.758 78.758 0 0 0 448.736 69.295 A 71.785 71.785 0 0 0 449.281 68.742 A 150.923 150.923 0 0 0 452.896 64.909 A 137.366 137.366 0 0 0 453.385 64.368 Q 453.817 63.936 454.789 62.694 A 22.833 22.833 0 0 1 455.101 62.304 Q 455.675 61.603 455.898 61.479 A 0.174 0.174 0 0 1 455.977 61.452 Q 456.361 61.452 456.404 62.133 A 2.909 2.909 0 0 1 456.409 62.316 Q 456.409 62.717 455.991 63.629 A 12.965 12.965 0 0 1 455.923 63.774 A 8.273 8.273 0 0 1 455.583 64.422 Q 455.399 64.735 455.208 64.983 A 3.649 3.649 0 0 1 454.897 65.34 Q 453.709 66.744 451.387 69.228 A 81.446 81.446 0 0 1 448.274 72.375 A 98.492 98.492 0 0 1 446.203 74.304 Q 443.341 76.896 440.641 78.732 A 14.866 14.866 0 0 1 439.095 79.661 Q 437.332 80.568 435.889 80.568 A 7.934 7.934 0 0 1 434.395 80.438 Q 433.573 80.28 432.948 79.931 A 3.494 3.494 0 0 1 431.785 78.894 A 6.298 6.298 0 0 1 430.754 76.434 A 8.774 8.774 0 0 1 430.597 74.736 A 21.003 21.003 0 0 1 431.644 68.361 Q 432.724 64.964 434.917 61.344 Z M 573.265 67.284 L 588.169 49.788 Q 590.977 46.548 594.325 46.548 Q 596.809 46.548 596.809 48.492 A 1.778 1.778 0 0 1 596.503 49.481 A 2.609 2.609 0 0 1 596.161 49.896 A 38.851 38.851 0 0 0 594.789 51.269 Q 593.181 52.954 591.139 55.404 A 100.154 100.154 0 0 0 586.066 62.055 A 111.256 111.256 0 0 0 585.361 63.072 Q 582.553 67.176 580.663 70.902 A 27.172 27.172 0 0 0 579.75 72.883 Q 578.938 74.864 578.801 76.325 A 6.127 6.127 0 0 0 578.773 76.896 A 4.314 4.314 0 0 0 578.823 77.581 Q 579.017 78.782 579.975 78.838 A 1.636 1.636 0 0 0 580.069 78.84 A 2.967 2.967 0 0 0 580.532 78.798 Q 581.018 78.72 581.715 78.498 A 18.335 18.335 0 0 0 582.445 78.246 Q 584.065 77.652 586.765 75.762 A 26.133 26.133 0 0 0 588.558 74.375 Q 590.647 72.623 593.245 69.876 A 13.134 13.134 0 0 0 593.564 69.542 Q 594.352 68.694 596.349 66.394 A 521.244 521.244 0 0 0 596.701 65.988 Q 598.851 63.508 602.141 59.381 A 488.515 488.515 0 0 0 604.261 56.7 A 138.208 138.208 0 0 1 607.201 53.157 Q 612.811 46.64 615.011 46.249 A 1.527 1.527 0 0 1 615.277 46.224 Q 618.841 46.224 619.165 49.14 A 0.429 0.429 0 0 1 619.175 49.233 Q 619.175 50.229 615.541 54.464 A 111.476 111.476 0 0 1 614.629 55.512 Q 608.473 62.964 606.205 66.204 A 44.832 44.832 0 0 0 604.363 69.113 Q 602.727 71.952 602.22 74.067 A 7.552 7.552 0 0 0 601.993 75.816 A 5.158 5.158 0 0 0 602.055 76.654 Q 602.3 78.135 603.518 78.19 A 2.114 2.114 0 0 0 603.613 78.192 Q 605.233 78.192 607.771 76.626 Q 610.309 75.06 613.117 72.63 Q 615.925 70.2 618.571 67.554 A 104.97 104.97 0 0 0 620.97 65.08 Q 622.085 63.889 623.035 62.787 A 62.951 62.951 0 0 0 623.161 62.64 A 3.165 3.165 0 0 1 623.521 62.279 Q 623.725 62.107 623.929 62.01 A 1.221 1.221 0 0 1 624.457 61.884 A 0.933 0.933 0 0 1 624.714 61.916 Q 625.001 61.999 625.078 62.292 A 0.955 0.955 0 0 1 625.105 62.532 A 1.285 1.285 0 0 1 625.097 62.671 Q 625.082 62.807 625.041 62.997 A 6.294 6.294 0 0 1 624.997 63.18 A 1.315 1.315 0 0 1 624.872 63.49 Q 624.704 63.798 624.349 64.152 A 139.658 139.658 0 0 1 623.425 65.182 Q 621.946 66.812 619.921 68.958 A 96.137 96.137 0 0 1 614.866 73.925 A 106.338 106.338 0 0 1 614.089 74.628 Q 610.957 77.436 608.041 79.272 A 17.534 17.534 0 0 1 606.47 80.16 Q 604.72 81.024 603.34 81.101 A 4.782 4.782 0 0 1 603.073 81.108 Q 600.589 81.108 598.753 79.758 A 4.29 4.29 0 0 1 596.95 76.645 A 5.662 5.662 0 0 1 596.917 76.032 A 15.94 15.94 0 0 1 597.533 71.7 A 18.067 18.067 0 0 1 597.673 71.226 Q 598.429 68.796 598.861 67.068 A 115.633 115.633 0 0 1 595.81 70.507 Q 594.2 72.245 592.737 73.652 A 46.42 46.42 0 0 1 589.951 76.14 A 52.012 52.012 0 0 1 587.73 77.863 Q 585.328 79.618 583.525 80.406 A 21.135 21.135 0 0 1 582.153 80.954 Q 580.815 81.431 579.847 81.52 A 4.656 4.656 0 0 1 579.421 81.54 Q 574.561 81.54 574.561 75.384 A 9.726 9.726 0 0 1 574.766 73.473 Q 574.958 72.518 575.33 71.451 A 22.862 22.862 0 0 1 576.019 69.714 A 31.374 31.374 0 0 1 577.723 66.434 Q 578.652 64.866 579.835 63.22 A 52.323 52.323 0 0 1 580.177 62.748 L 578.233 64.584 A 52.771 52.771 0 0 0 576.699 66.098 Q 575.861 66.958 574.94 67.965 A 105.772 105.772 0 0 0 573.805 69.228 A 1.457 1.457 0 0 1 572.767 69.66 A 1.914 1.914 0 0 1 572.725 69.66 A 0.489 0.489 0 0 1 572.536 69.626 Q 572.325 69.538 572.298 69.221 A 1.164 1.164 0 0 1 572.293 69.12 Q 572.293 68.633 573.084 67.532 A 14.507 14.507 0 0 1 573.265 67.284 Z M 260.065 49.356 L 252.073 59.724 A 153.66 153.66 0 0 1 250.03 62.337 Q 246.274 67.025 244.82 67.859 A 1.12 1.12 0 0 1 244.297 68.04 Q 243.757 68.04 243.757 67.608 Q 243.757 67.068 244.297 66.204 A 3.948 3.948 0 0 1 244.531 65.806 Q 244.808 65.385 245.278 64.835 A 19.103 19.103 0 0 1 245.593 64.476 Q 249.697 59.724 253.153 55.08 A 71.496 71.496 0 0 0 256.666 49.924 A 56.933 56.933 0 0 0 258.877 46.008 A 39.698 39.698 0 0 1 259.854 42.815 Q 261.682 37.7 264.091 36.803 A 2.989 2.989 0 0 1 265.141 36.612 A 3.943 3.943 0 0 1 266.094 36.717 Q 267.625 37.1 267.625 38.88 A 4.33 4.33 0 0 1 267.375 40.251 Q 266.803 41.952 264.925 44.28 Q 262.333 47.628 262.333 47.736 Q 262.333 49.621 264.647 49.94 A 7.626 7.626 0 0 0 265.681 50.004 A 6.444 6.444 0 0 0 267.465 49.736 Q 268.665 49.39 270.001 48.6 L 272.809 46.872 A 0.806 0.806 0 0 1 272.966 46.815 Q 273.133 46.771 273.376 46.765 A 3.211 3.211 0 0 1 273.457 46.764 Q 274.753 46.764 275.725 47.844 Q 276.697 48.924 276.373 49.788 L 268.921 59.184 Q 263.504 66.125 262.333 70.943 A 10.595 10.595 0 0 0 262.009 73.44 Q 262.009 78.3 266.761 78.3 Q 269.698 78.3 273.033 76.704 A 22.546 22.546 0 0 0 273.727 76.356 A 42.004 42.004 0 0 0 279.861 72.422 A 47.369 47.369 0 0 0 280.963 71.55 A 59.428 59.428 0 0 0 284.005 68.903 Q 285.389 67.608 286.529 66.348 A 35.606 35.606 0 0 0 286.849 65.988 L 289.441 62.964 L 289.981 62.424 Q 290.22 62.186 290.4 62.123 A 0.369 0.369 0 0 1 290.521 62.1 A 1.088 1.088 0 0 1 290.821 62.138 Q 291.156 62.234 291.245 62.576 A 1.114 1.114 0 0 1 291.277 62.856 Q 291.277 63.072 291.061 63.612 A 3.247 3.247 0 0 1 290.843 64.051 Q 290.634 64.405 290.305 64.8 L 286.849 68.688 Q 284.375 71.485 280.776 74.336 A 64.587 64.587 0 0 1 280.747 74.358 Q 277.129 77.22 273.295 79.056 A 22.123 22.123 0 0 1 270.519 80.175 Q 268.287 80.892 266.329 80.892 Q 261.685 80.892 259.957 78.462 A 8.637 8.637 0 0 1 258.696 75.741 Q 258.229 74.06 258.229 71.928 Q 258.229 67.392 261.037 61.128 A 44.142 44.142 0 0 1 262.287 58.488 A 35.073 35.073 0 0 1 263.305 56.646 A 42.583 42.583 0 0 1 265.387 53.467 A 38.19 38.19 0 0 1 265.789 52.92 Q 265.45 53.005 265.178 53.023 A 2.164 2.164 0 0 1 265.033 53.028 L 264.385 53.028 A 3.624 3.624 0 0 1 261.909 52.022 Q 261.339 51.511 260.831 50.739 A 11.128 11.128 0 0 1 260.065 49.356 Z M 748.657 49.356 L 740.665 59.724 A 153.66 153.66 0 0 1 738.622 62.337 Q 734.866 67.025 733.412 67.859 A 1.12 1.12 0 0 1 732.889 68.04 Q 732.349 68.04 732.349 67.608 Q 732.349 67.068 732.889 66.204 A 3.948 3.948 0 0 1 733.123 65.806 Q 733.4 65.385 733.87 64.835 A 19.103 19.103 0 0 1 734.185 64.476 Q 738.289 59.724 741.745 55.08 A 71.496 71.496 0 0 0 745.258 49.924 A 56.933 56.933 0 0 0 747.469 46.008 A 39.698 39.698 0 0 1 748.446 42.815 Q 750.274 37.7 752.683 36.803 A 2.989 2.989 0 0 1 753.733 36.612 A 3.943 3.943 0 0 1 754.686 36.717 Q 756.217 37.1 756.217 38.88 A 4.33 4.33 0 0 1 755.967 40.251 Q 755.395 41.952 753.517 44.28 Q 750.925 47.628 750.925 47.736 Q 750.925 49.621 753.239 49.94 A 7.626 7.626 0 0 0 754.273 50.004 A 6.444 6.444 0 0 0 756.057 49.736 Q 757.257 49.39 758.593 48.6 L 761.401 46.872 A 0.806 0.806 0 0 1 761.558 46.815 Q 761.725 46.771 761.968 46.765 A 3.211 3.211 0 0 1 762.049 46.764 Q 763.345 46.764 764.317 47.844 Q 765.289 48.924 764.965 49.788 L 757.513 59.184 Q 752.096 66.125 750.925 70.943 A 10.595 10.595 0 0 0 750.601 73.44 Q 750.601 78.3 755.353 78.3 Q 758.29 78.3 761.625 76.704 A 22.546 22.546 0 0 0 762.319 76.356 A 42.004 42.004 0 0 0 768.453 72.422 A 47.369 47.369 0 0 0 769.555 71.55 A 59.428 59.428 0 0 0 772.597 68.903 Q 773.981 67.608 775.121 66.348 A 35.606 35.606 0 0 0 775.441 65.988 L 778.033 62.964 L 778.573 62.424 Q 778.812 62.186 778.992 62.123 A 0.369 0.369 0 0 1 779.113 62.1 A 1.088 1.088 0 0 1 779.413 62.138 Q 779.748 62.234 779.837 62.576 A 1.114 1.114 0 0 1 779.869 62.856 Q 779.869 63.072 779.653 63.612 A 3.247 3.247 0 0 1 779.435 64.051 Q 779.226 64.405 778.897 64.8 L 775.441 68.688 Q 772.967 71.485 769.368 74.336 A 64.587 64.587 0 0 1 769.339 74.358 Q 765.721 77.22 761.887 79.056 A 22.123 22.123 0 0 1 759.111 80.175 Q 756.879 80.892 754.921 80.892 Q 750.277 80.892 748.549 78.462 A 8.637 8.637 0 0 1 747.288 75.741 Q 746.821 74.06 746.821 71.928 Q 746.821 67.392 749.629 61.128 A 44.142 44.142 0 0 1 750.879 58.488 A 35.073 35.073 0 0 1 751.897 56.646 A 42.583 42.583 0 0 1 753.979 53.467 A 38.19 38.19 0 0 1 754.381 52.92 Q 754.042 53.005 753.77 53.023 A 2.164 2.164 0 0 1 753.625 53.028 L 752.977 53.028 A 3.624 3.624 0 0 1 750.501 52.022 Q 749.931 51.511 749.423 50.739 A 11.128 11.128 0 0 1 748.657 49.356 Z M 310.177 68.796 L 303.481 75.276 Q 301.497 77.261 299.768 78.501 A 15.605 15.605 0 0 1 298.027 79.596 A 17.032 17.032 0 0 1 296.733 80.223 Q 295.172 80.892 294.085 80.892 A 7.915 7.915 0 0 1 290.926 80.21 A 11.181 11.181 0 0 1 288.901 79.056 A 8.799 8.799 0 0 1 287.445 77.782 Q 286.203 76.405 285.985 74.736 A 11.204 11.204 0 0 1 285.893 73.292 Q 285.893 66.592 293.591 57.985 A 68.957 68.957 0 0 1 296.461 54.972 Q 306.227 45.206 314.343 43.771 A 15.756 15.756 0 0 1 317.089 43.524 Q 318.955 43.524 320.211 44.194 A 4.353 4.353 0 0 1 320.977 44.712 Q 321.733 45.468 322.111 46.764 A 13.573 13.573 0 0 0 322.237 47.171 Q 322.476 47.905 322.639 48.033 A 0.109 0.109 0 0 0 322.705 48.06 Q 323.137 48.06 323.461 47.898 A 1.509 1.509 0 0 1 323.902 47.76 A 2.008 2.008 0 0 1 324.217 47.736 A 3.092 3.092 0 0 1 326.422 48.647 A 4.06 4.06 0 0 1 326.485 48.708 Q 327.457 49.68 327.565 50.436 A 0.02 0.02 0 0 1 327.567 50.445 Q 327.567 50.763 322.336 58.611 A 1242.757 1242.757 0 0 1 320.653 61.128 A 96.051 96.051 0 0 0 318.469 64.456 Q 313.805 71.922 314.269 74.982 A 3.269 3.269 0 0 0 314.281 75.06 A 5.44 5.44 0 0 0 314.58 76.028 Q 314.796 76.537 315.101 76.876 A 2.001 2.001 0 0 0 316.657 77.544 A 6.563 6.563 0 0 0 319.679 76.591 Q 325.65 73.336 337.177 58.968 Q 337.501 58.536 337.825 58.536 Q 338.365 58.536 338.365 59.292 A 2.038 2.038 0 0 1 338.261 59.906 Q 338.046 60.581 337.393 61.452 A 138.7 138.7 0 0 1 332.084 68.193 Q 324.241 77.485 318.938 79.415 A 7.64 7.64 0 0 1 316.333 79.92 A 5.186 5.186 0 0 1 314.501 79.598 A 3.964 3.964 0 0 1 314.497 79.596 Q 309.745 77.76 309.745 72.468 Q 309.745 70.632 310.177 68.796 Z M 387.181 68.796 L 380.485 75.276 Q 378.501 77.261 376.772 78.501 A 15.605 15.605 0 0 1 375.031 79.596 A 17.032 17.032 0 0 1 373.737 80.223 Q 372.176 80.892 371.089 80.892 A 7.915 7.915 0 0 1 367.93 80.21 A 11.181 11.181 0 0 1 365.905 79.056 A 8.799 8.799 0 0 1 364.449 77.782 Q 363.207 76.405 362.989 74.736 A 11.204 11.204 0 0 1 362.897 73.292 Q 362.897 66.592 370.595 57.985 A 68.957 68.957 0 0 1 373.465 54.972 Q 383.231 45.206 391.347 43.771 A 15.756 15.756 0 0 1 394.093 43.524 Q 395.959 43.524 397.215 44.194 A 4.353 4.353 0 0 1 397.981 44.712 Q 398.737 45.468 399.115 46.764 A 13.573 13.573 0 0 0 399.241 47.171 Q 399.48 47.905 399.643 48.033 A 0.109 0.109 0 0 0 399.709 48.06 Q 400.141 48.06 400.465 47.898 A 1.509 1.509 0 0 1 400.906 47.76 A 2.008 2.008 0 0 1 401.221 47.736 A 3.092 3.092 0 0 1 403.426 48.647 A 4.06 4.06 0 0 1 403.489 48.708 Q 404.461 49.68 404.569 50.436 A 0.02 0.02 0 0 1 404.571 50.445 Q 404.571 50.763 399.34 58.611 A 1242.757 1242.757 0 0 1 397.657 61.128 A 96.051 96.051 0 0 0 395.473 64.456 Q 390.809 71.922 391.273 74.982 A 3.269 3.269 0 0 0 391.285 75.06 A 5.44 5.44 0 0 0 391.584 76.028 Q 391.8 76.537 392.105 76.876 A 2.001 2.001 0 0 0 393.661 77.544 A 6.563 6.563 0 0 0 396.683 76.591 Q 402.654 73.336 414.181 58.968 Q 414.505 58.536 414.829 58.536 Q 415.369 58.536 415.369 59.292 A 2.038 2.038 0 0 1 415.265 59.906 Q 415.05 60.581 414.397 61.452 A 138.7 138.7 0 0 1 409.088 68.193 Q 401.245 77.485 395.942 79.415 A 7.64 7.64 0 0 1 393.337 79.92 A 5.186 5.186 0 0 1 391.505 79.598 A 3.964 3.964 0 0 1 391.501 79.596 Q 386.749 77.76 386.749 72.468 Q 386.749 70.632 387.181 68.796 Z M 711.721 68.796 L 705.025 75.276 Q 703.041 77.261 701.312 78.501 A 15.605 15.605 0 0 1 699.571 79.596 A 17.032 17.032 0 0 1 698.277 80.223 Q 696.716 80.892 695.629 80.892 A 7.915 7.915 0 0 1 692.47 80.21 A 11.181 11.181 0 0 1 690.445 79.056 A 8.799 8.799 0 0 1 688.989 77.782 Q 687.747 76.405 687.529 74.736 A 11.204 11.204 0 0 1 687.437 73.292 Q 687.437 66.592 695.135 57.985 A 68.957 68.957 0 0 1 698.005 54.972 Q 707.771 45.206 715.887 43.771 A 15.756 15.756 0 0 1 718.633 43.524 Q 720.499 43.524 721.755 44.194 A 4.353 4.353 0 0 1 722.521 44.712 Q 723.277 45.468 723.655 46.764 A 13.573 13.573 0 0 0 723.781 47.171 Q 724.02 47.905 724.183 48.033 A 0.109 0.109 0 0 0 724.249 48.06 Q 724.681 48.06 725.005 47.898 A 1.509 1.509 0 0 1 725.446 47.76 A 2.008 2.008 0 0 1 725.761 47.736 A 3.092 3.092 0 0 1 727.966 48.647 A 4.06 4.06 0 0 1 728.029 48.708 Q 729.001 49.68 729.109 50.436 A 0.02 0.02 0 0 1 729.111 50.445 Q 729.111 50.763 723.88 58.611 A 1242.757 1242.757 0 0 1 722.197 61.128 A 96.051 96.051 0 0 0 720.013 64.456 Q 715.349 71.922 715.813 74.982 A 3.269 3.269 0 0 0 715.825 75.06 A 5.44 5.44 0 0 0 716.124 76.028 Q 716.34 76.537 716.645 76.876 A 2.001 2.001 0 0 0 718.201 77.544 A 6.563 6.563 0 0 0 721.223 76.591 Q 727.194 73.336 738.721 58.968 Q 739.045 58.536 739.369 58.536 Q 739.909 58.536 739.909 59.292 A 2.038 2.038 0 0 1 739.805 59.906 Q 739.59 60.581 738.937 61.452 A 138.7 138.7 0 0 1 733.628 68.193 Q 725.785 77.485 720.482 79.415 A 7.64 7.64 0 0 1 717.877 79.92 A 5.186 5.186 0 0 1 716.045 79.598 A 3.964 3.964 0 0 1 716.041 79.596 Q 711.289 77.76 711.289 72.468 Q 711.289 70.632 711.721 68.796 Z M 333.073 80.082 A 10.392 10.392 0 0 0 333.489 80.279 Q 334.38 80.676 334.909 80.676 Q 338.689 79.488 343.495 76.14 A 81.723 81.723 0 0 0 345.811 74.464 Q 349.694 71.552 354.241 67.5 A 96.091 96.091 0 0 0 357.116 64.794 Q 359.382 62.567 361.217 60.437 A 48.561 48.561 0 0 0 364.717 55.89 Q 368.389 50.436 368.389 46.116 Q 368.389 44.417 367.991 43.069 A 6.502 6.502 0 0 0 366.067 39.96 Q 363.745 37.908 360.613 37.908 A 2.557 2.557 0 0 0 360.422 37.915 Q 359.425 37.99 359.425 38.88 A 0.915 0.915 0 0 0 359.53 39.317 Q 359.706 39.648 360.181 39.852 A 12.479 12.479 0 0 1 361.222 40.366 Q 363.093 41.407 363.907 42.822 Q 364.933 44.604 364.933 46.764 Q 364.933 49.289 363.53 52.247 A 24.382 24.382 0 0 1 361.963 55.026 Q 359.922 58.182 356.119 61.822 A 78.224 78.224 0 0 1 352.297 65.232 A 200.928 200.928 0 0 1 350.053 67.058 Q 343.131 72.605 338.999 74.794 A 16.057 16.057 0 0 1 336.421 75.924 A 1.746 1.746 0 0 1 336.417 75.885 Q 336.14 73.449 341.389 61.344 A 7274.806 7274.806 0 0 0 342.704 58.267 Q 346.789 48.694 346.789 48.6 A 3.583 3.583 0 0 0 346.457 47.329 A 3.906 3.906 0 0 0 345.601 46.17 Q 345.196 45.785 344.776 45.545 A 2.869 2.869 0 0 0 343.333 45.144 A 2.143 2.143 0 0 0 342.852 45.195 A 1.429 1.429 0 0 0 342.145 45.576 A 2.878 2.878 0 0 0 341.787 45.97 Q 341.133 46.809 340.1 48.872 A 64.626 64.626 0 0 0 339.445 50.22 Q 337.609 54.108 334.909 61.236 A 327.596 327.596 0 0 0 333.724 64.364 Q 331.918 69.205 330.967 72.306 Q 329.798 76.118 329.825 77.108 A 1.17 1.17 0 0 0 329.833 77.22 A 1.225 1.225 0 0 0 329.911 77.486 Q 330.136 78.03 330.913 78.678 Q 331.885 79.488 333.073 80.082 Z M 67.569 26.934 A 103.151 103.151 0 0 0 55.189 43.2 A 13.896 13.896 0 0 1 52.537 42.439 Q 48.958 40.984 47.778 37.649 A 11.165 11.165 0 0 1 47.197 33.912 A 28.731 28.731 0 0 1 47.207 33.167 A 23.414 23.414 0 0 1 51.571 19.818 Q 55.945 13.716 62.749 10.692 Q 70.741 7.128 77.869 7.452 Q 80.137 7.56 82.675 8.532 A 15.648 15.648 0 0 1 83.602 8.921 A 13.306 13.306 0 0 1 87.049 11.178 A 7.119 7.119 0 0 1 88.028 12.261 A 4.879 4.879 0 0 1 88.993 14.904 A 4.661 4.661 0 0 0 87.642 14.323 A 5.834 5.834 0 0 0 86.185 14.148 Q 79.921 14.148 69.661 24.732 A 115.874 115.874 0 0 0 67.569 26.934 Z M 310.177 64.8 L 321.625 49.032 A 2.838 2.838 0 0 0 319.589 47.588 A 4.224 4.224 0 0 0 318.817 47.52 A 11.76 11.76 0 0 0 314.621 48.405 Q 308.997 50.574 301.038 58.066 A 105.845 105.845 0 0 0 300.997 58.104 Q 290.412 67.906 290.412 74.594 A 7.958 7.958 0 0 0 290.521 75.924 A 5.239 5.239 0 0 0 290.844 76.966 Q 291.513 78.486 293.051 78.516 A 3.195 3.195 0 0 0 293.113 78.516 A 8.52 8.52 0 0 0 296.878 77.491 Q 301.8 75.031 308.672 66.672 A 113.907 113.907 0 0 0 310.177 64.8 Z M 387.181 64.8 L 398.629 49.032 A 2.838 2.838 0 0 0 396.593 47.588 A 4.224 4.224 0 0 0 395.821 47.52 A 11.76 11.76 0 0 0 391.625 48.405 Q 386.001 50.574 378.042 58.066 A 105.845 105.845 0 0 0 378.001 58.104 Q 367.416 67.906 367.416 74.594 A 7.958 7.958 0 0 0 367.525 75.924 A 5.239 5.239 0 0 0 367.848 76.966 Q 368.517 78.486 370.055 78.516 A 3.195 3.195 0 0 0 370.117 78.516 A 8.52 8.52 0 0 0 373.882 77.491 Q 378.804 75.031 385.676 66.672 A 113.907 113.907 0 0 0 387.181 64.8 Z M 711.721 64.8 L 723.169 49.032 A 2.838 2.838 0 0 0 721.133 47.588 A 4.224 4.224 0 0 0 720.361 47.52 A 11.76 11.76 0 0 0 716.165 48.405 Q 710.541 50.574 702.582 58.066 A 105.845 105.845 0 0 0 702.541 58.104 Q 691.956 67.906 691.956 74.594 A 7.958 7.958 0 0 0 692.065 75.924 A 5.239 5.239 0 0 0 692.388 76.966 Q 693.057 78.486 694.595 78.516 A 3.195 3.195 0 0 0 694.657 78.516 A 8.52 8.52 0 0 0 698.422 77.491 Q 703.344 75.031 710.216 66.672 A 113.907 113.907 0 0 0 711.721 64.8 Z M 179.389 82.296 Q 176.473 79.056 174.853 75.6 Q 172.856 71.06 171.698 64.765 A 76.826 76.826 0 0 1 171.289 62.316 A 54.908 54.908 0 0 0 171.017 60.667 Q 170.401 57.291 169.733 56.712 A 0.427 0.427 0 0 0 169.453 56.592 Q 168.773 56.592 167.724 57.396 A 10.636 10.636 0 0 0 167.131 57.888 A 3.219 3.219 0 0 0 166.363 58.983 Q 165.864 60.082 165.726 61.903 A 19.871 19.871 0 0 0 165.673 63.396 Q 165.673 71.604 171.505 77.652 Q 174.421 80.676 179.389 82.296 Z M 67.825 50.868 A 0.299 0.299 0 0 0 67.838 50.952 Q 67.888 51.126 68.149 51.3 A 1.225 1.225 0 0 0 68.447 51.336 Q 69.881 51.336 72.639 48.389 A 39.968 39.968 0 0 0 73.981 46.872 A 27.767 27.767 0 0 0 75.856 44.318 Q 76.965 42.597 77.592 40.959 A 11.523 11.523 0 0 0 78.409 36.828 A 2.716 2.716 0 0 0 77.695 34.979 A 4.201 4.201 0 0 0 76.897 34.29 Q 75.385 33.264 73.873 33.264 Q 71.427 33.264 70.891 35.242 A 4.843 4.843 0 0 0 70.741 36.504 A 1.356 1.356 0 0 0 70.771 36.787 Q 70.946 37.61 72.145 38.394 A 5.303 5.303 0 0 1 72.54 38.678 Q 72.915 38.975 73.164 39.298 A 2.278 2.278 0 0 1 73.657 40.5 A 2.837 2.837 0 0 1 73.688 40.921 Q 73.688 43.035 70.849 46.656 A 161.207 161.207 0 0 0 70.539 47.046 Q 68.34 49.812 67.923 50.605 A 0.696 0.696 0 0 0 67.825 50.868 Z M 535.465 53.46 L 536.221 52.38 Q 536.994 51.221 538.242 49.457 A 257.267 257.267 0 0 1 538.543 49.032 A 116.983 116.983 0 0 0 539.69 47.387 Q 540.19 46.657 540.727 45.853 A 205.095 205.095 0 0 0 541.837 44.172 Q 540.9 43.782 540.132 43.674 A 4.041 4.041 0 0 0 539.569 43.632 A 4.501 4.501 0 0 0 536.154 45.147 A 6.292 6.292 0 0 0 535.789 45.576 Q 534.277 47.52 534.277 49.896 A 5.948 5.948 0 0 0 534.643 52.007 A 5.443 5.443 0 0 0 535.465 53.46 Z M 541.523 55.215 A 0.992 0.992 0 0 0 541.621 55.188 Q 542.68 55.025 544.598 54.126 A 37.828 37.828 0 0 0 545.941 53.46 Q 545.509 52.164 545.131 51.084 Q 544.807 50.156 544.601 49.388 A 16.051 16.051 0 0 1 544.537 49.14 A 68.104 68.104 0 0 1 543.925 50.084 Q 543.651 50.5 543.345 50.952 A 122.558 122.558 0 0 1 542.701 51.894 Q 541.621 53.46 540.217 55.296 Q 541.155 55.296 541.523 55.215 Z" vector-effect="non-scaling-stroke"/></g></svg>